<?xml version="1.0" standalone="no"?><!DOCTYPE svg PUBLIC "-//W3C//DTD SVG 1.1//EN" "http://www.w3.org/Graphics/SVG/1.1/DTD/svg11.dtd"><svg t="1736013799279" class="icon" viewBox="0 0 1024 1024" version="1.1" xmlns="http://www.w3.org/2000/svg" p-id="57168" xmlns:xlink="http://www.w3.org/1999/xlink" width="64" height="64"><path d="M528 1009.6c-35.2 0-68.8-3.2-104-11.2l6.4-32c145.6 30.4 292.8-8 404.8-104l20.8 24c-92.8 80-209.6 123.2-328 123.2z m-136-19.2c-16-4.8-32-9.6-48-16l11.2-30.4c14.4 6.4 30.4 11.2 44.8 14.4l-8 32zM310.4 960c-16-8-32-16-48-25.6l16-27.2c14.4 8 28.8 16 44.8 24l-12.8 28.8z m-81.6-48c-14.4-9.6-27.2-20.8-40-32l20.8-24c12.8 11.2 24 20.8 36.8 30.4L228.8 912z m633.6-724.8c-14.4-14.4-28.8-27.2-43.2-38.4l20.8-25.6c16 12.8 32 27.2 46.4 41.6l-24 22.4zM235.2 147.2l-19.2-24c123.2-96 280-129.6 432-91.2L640 62.4c-142.4-35.2-289.6-4.8-404.8 84.8zM788.8 128c-14.4-11.2-28.8-19.2-44.8-27.2l16-28.8c16 8 32 17.6 48 28.8L788.8 128z m-73.6-41.6c-14.4-6.4-30.4-11.2-44.8-16l9.6-30.4c16 4.8 32 11.2 48 17.6l-12.8 28.8z" fill="#B6B9B9" p-id="57169"></path><path d="M972.8 398.4L536 196.8c-12.8-6.4-28.8-6.4-41.6 0L56 398.4c-17.6 8-32 25.6-32 44.8v41.6c0 19.2 14.4 36.8 32 44.8l438.4 201.6c12.8 6.4 28.8 6.4 41.6 0l436.8-201.6c17.6-8 27.2-25.6 27.2-44.8v-41.6c0-19.2-9.6-36.8-27.2-44.8" fill="#A7CCE2" p-id="57170"></path><path d="M515.2 753.6c-9.6 0-19.2-1.6-27.2-6.4L48 545.6C24 534.4 8 510.4 8 486.4v-41.6c0-24 16-48 40-59.2l440-203.2c17.6-8 36.8-8 54.4 0L979.2 384c22.4 11.2 36.8 33.6 36.8 59.2v41.6c0 25.6-14.4 49.6-36.8 59.2L542.4 747.2c-8 4.8-17.6 6.4-27.2 6.4z m0-545.6c-4.8 0-9.6 1.6-14.4 3.2L62.4 412.8c-12.8 6.4-22.4 19.2-22.4 30.4v41.6c0 11.2 9.6 24 22.4 30.4l438.4 201.6c9.6 4.8 19.2 4.8 28.8 0l436.8-201.6c11.2-4.8 19.2-17.6 19.2-30.4v-41.6c0-14.4-6.4-25.6-17.6-30.4L529.6 211.2c-4.8-1.6-9.6-3.2-14.4-3.2zM560 628.8l-14.4-28.8 336-176 14.4 28.8-336 176z m-96 0l-336-176 14.4-28.8 336 176-14.4 28.8z" fill="#2C4971" p-id="57171"></path><path d="M516.8 336l-140.8 64v4.8l145.6 65.6 142.4-64v-4.8L516.8 336" fill="#FFFFFE" p-id="57172"></path><path d="M521.6 488l-161.6-73.6v-25.6l156.8-70.4 163.2 73.6V416l-158.4 72z m-112-86.4l112 51.2 107.2-48-112-51.2-107.2 48z" fill="#2C4971" p-id="57173"></path><path d="M699.2 643.2c-9.6-17.6-30.4-25.6-48-16-17.6 9.6-25.6 30.4-16 48l32 48v48c0 17.6 14.4 32 32 32s32-14.4 32-32v-80l-32-48" fill="#FFFFFE" p-id="57174"></path><path d="M699.2 819.2c-27.2 0-48-20.8-48-48v-43.2l-30.4-46.4c-6.4-12.8-6.4-27.2-3.2-40 4.8-12.8 12.8-24 25.6-30.4s27.2-6.4 40-3.2c12.8 4.8 24 12.8 28.8 25.6l33.6 51.2v84.8c1.6 28.8-19.2 49.6-46.4 49.6z m-49.6-152l33.6 51.2v52.8c0 9.6 6.4 16 16 16s16-6.4 16-16v-75.2l-30.4-46.4c-1.6-4.8-6.4-8-11.2-9.6-4.8 0-9.6 0-14.4 1.6-4.8 1.6-8 6.4-9.6 11.2-1.6 4.8-1.6 11.2 0 14.4z" fill="#2C4971" p-id="57175"></path><path d="M763.2 611.2c-9.6-17.6-30.4-25.6-48-16-17.6 9.6-25.6 30.4-16 48l32 48v48c0 17.6 14.4 32 32 32s32-14.4 32-32v-80l-32-48" fill="#FFFFFE" p-id="57176"></path><path d="M763.2 787.2c-27.2 0-48-20.8-48-48v-43.2l-30.4-46.4c-6.4-12.8-6.4-27.2-3.2-40 4.8-12.8 12.8-24 25.6-30.4 12.8-6.4 27.2-6.4 40-3.2 12.8 4.8 24 12.8 28.8 25.6l33.6 51.2v84.8c1.6 28.8-19.2 49.6-46.4 49.6z m-49.6-152l33.6 51.2v52.8c0 9.6 6.4 16 16 16s16-6.4 16-16v-75.2l-30.4-46.4c-1.6-4.8-6.4-8-11.2-9.6-4.8 0-9.6 0-14.4 1.6-4.8 1.6-8 6.4-9.6 11.2-1.6 4.8-1.6 11.2 0 14.4z" fill="#2C4971" p-id="57177"></path><path d="M827.2 579.2c-9.6-17.6-30.4-25.6-48-16-17.6 9.6-25.6 30.4-16 48l32 48v48c0 17.6 14.4 32 32 32s32-14.4 32-32v-80l-32-48" fill="#FFFFFE" p-id="57178"></path><path d="M827.2 755.2c-27.2 0-48-20.8-48-48v-43.2l-30.4-46.4c-6.4-12.8-6.4-27.2-3.2-40 4.8-12.8 12.8-24 25.6-30.4 12.8-6.4 27.2-6.4 40-3.2 12.8 4.8 24 12.8 28.8 25.6l33.6 51.2v84.8c1.6 28.8-19.2 49.6-46.4 49.6z m-49.6-152l33.6 51.2v52.8c0 9.6 6.4 16 16 16s16-6.4 16-16v-75.2l-30.4-46.4c-1.6-4.8-6.4-8-11.2-9.6-4.8 0-9.6 0-14.4 1.6-4.8 1.6-8 6.4-9.6 11.2-1.6 4.8-1.6 11.2 0 14.4z" fill="#2C4971" p-id="57179"></path><path d="M891.2 547.2c-9.6-17.6-30.4-25.6-48-16-17.6 9.6-25.6 30.4-16 48l32 48v48c0 17.6 14.4 32 32 32s32-14.4 32-32v-80l-32-48" fill="#FFFFFE" p-id="57180"></path><path d="M891.2 723.2c-27.2 0-48-20.8-48-48v-43.2l-30.4-46.4c-6.4-12.8-6.4-27.2-3.2-40 4.8-12.8 12.8-24 25.6-30.4 12.8-6.4 27.2-6.4 40-3.2 12.8 4.8 24 12.8 28.8 25.6l33.6 51.2v84.8c1.6 28.8-19.2 49.6-46.4 49.6z m-49.6-152l33.6 51.2v52.8c0 9.6 6.4 16 16 16s16-6.4 16-16v-75.2l-30.4-46.4c-1.6-4.8-6.4-8-11.2-9.6-4.8 0-9.6 0-14.4 1.6-4.8 1.6-8 6.4-9.6 11.2-1.6 4.8-1.6 11.2 0 14.4z" fill="#2C4971" p-id="57181"></path><path d="M955.2 515.2c-9.6-17.6-30.4-25.6-48-16-17.6 9.6-25.6 30.4-16 48l32 48v48c0 17.6 14.4 32 32 32s32-14.4 32-32v-80l-32-48" fill="#FFFFFE" p-id="57182"></path><path d="M955.2 691.2c-27.2 0-48-20.8-48-48v-43.2l-30.4-46.4c-12.8-25.6-1.6-56 22.4-68.8 12.8-6.4 27.2-6.4 40-3.2 12.8 4.8 24 12.8 28.8 25.6l33.6 51.2v84.8c1.6 27.2-19.2 48-46.4 48z m-49.6-152l33.6 51.2v52.8c0 9.6 6.4 16 16 16s16-6.4 16-16v-75.2l-30.4-46.4c-1.6-4.8-6.4-8-11.2-9.6-4.8 0-9.6 0-14.4 1.6-9.6 4.8-14.4 16-9.6 25.6z" fill="#2C4971" p-id="57183"></path><path d="M342.4 643.2c9.6-17.6 28.8-25.6 46.4-16 17.6 9.6 25.6 30.4 17.6 48l-30.4 48v48c0 17.6-14.4 32-32 32s-32-14.4-32-32v-80l30.4-48" fill="#FFFFFE" p-id="57184"></path><path d="M344 819.2c-27.2 0-48-20.8-48-48v-84.8l32-51.2c12.8-25.6 43.2-35.2 68.8-22.4 12.8 6.4 22.4 16 27.2 28.8 4.8 12.8 4.8 27.2-1.6 40l-1.6 1.6-28.8 44.8v43.2c0 27.2-20.8 48-48 48z m-16-123.2v75.2c0 9.6 6.4 16 16 16s16-6.4 16-16v-52.8l32-51.2c1.6-4.8 1.6-9.6 0-14.4-1.6-4.8-6.4-9.6-11.2-11.2-9.6-4.8-20.8-1.6-25.6 9.6v1.6l-27.2 43.2z" fill="#2C4971" p-id="57185"></path><path d="M278.4 611.2c9.6-17.6 28.8-25.6 46.4-16 17.6 9.6 25.6 30.4 17.6 48l-30.4 48v48c0 17.6-14.4 32-32 32s-32-14.4-32-32v-80l30.4-48" fill="#FFFFFE" p-id="57186"></path><path d="M280 787.2c-27.2 0-48-20.8-48-48v-84.8l32-51.2c12.8-25.6 43.2-35.2 68.8-22.4 12.8 6.4 22.4 16 27.2 28.8 4.8 12.8 4.8 27.2-1.6 40l-1.6 1.6-28.8 44.8v43.2c0 27.2-20.8 48-48 48z m-16-123.2v75.2c0 9.6 6.4 16 16 16s16-6.4 16-16v-52.8l32-51.2c1.6-4.8 1.6-9.6 0-14.4-1.6-4.8-6.4-9.6-11.2-11.2-9.6-4.8-20.8-1.6-25.6 9.6v1.6l-27.2 43.2z" fill="#2C4971" p-id="57187"></path><path d="M214.4 579.2c9.6-17.6 28.8-25.6 46.4-16 17.6 9.6 25.6 30.4 17.6 48l-30.4 48v48c0 17.6-14.4 32-32 32s-32-14.4-32-32v-80l30.4-48" fill="#FFFFFE" p-id="57188"></path><path d="M216 755.2c-27.2 0-48-20.8-48-48v-84.8l32-51.2c12.8-25.6 43.2-35.2 68.8-22.4 12.8 6.4 22.4 16 27.2 28.8 4.8 12.8 4.8 27.2-1.6 40l-1.6 1.6-28.8 44.8v43.2c0 27.2-20.8 48-48 48z m-16-123.2v75.2c0 9.6 6.4 16 16 16s16-6.4 16-16v-52.8l32-51.2c1.6-4.8 1.6-9.6 0-14.4-1.6-4.8-6.4-9.6-11.2-11.2-9.6-4.8-20.8-1.6-25.6 9.6v1.6l-27.2 43.2z" fill="#2C4971" p-id="57189"></path><path d="M150.4 547.2c9.6-17.6 28.8-25.6 46.4-16 17.6 9.6 25.6 30.4 17.6 48l-30.4 48v48c0 17.6-14.4 32-32 32s-32-14.4-32-32v-80l30.4-48" fill="#FFFFFE" p-id="57190"></path><path d="M152 723.2c-27.2 0-48-20.8-48-48v-84.8l32-51.2c12.8-25.6 43.2-35.2 68.8-22.4 12.8 6.4 22.4 16 27.2 28.8 4.8 12.8 4.8 27.2-1.6 40l-1.6 1.6-28.8 44.8v43.2c0 27.2-20.8 48-48 48z m-16-123.2v75.2c0 9.6 6.4 16 16 16s16-6.4 16-16v-52.8l32-51.2c1.6-4.8 1.6-9.6 0-14.4-1.6-4.8-6.4-9.6-11.2-11.2-9.6-4.8-20.8-1.6-25.6 9.6v1.6l-27.2 43.2z" fill="#2C4971" p-id="57191"></path><path d="M86.4 515.2c9.6-17.6 28.8-25.6 46.4-16 17.6 9.6 25.6 30.4 17.6 48l-30.4 48v48c0 17.6-14.4 32-32 32s-32-14.4-32-32v-80l30.4-48" fill="#FFFFFE" p-id="57192"></path><path d="M88 691.2c-27.2 0-48-20.8-48-48v-84.8l32-51.2c12.8-25.6 43.2-35.2 68.8-22.4 25.6 12.8 36.8 44.8 24 68.8l-1.6 1.6-27.2 44.8v43.2c0 27.2-20.8 48-48 48z m-16-123.2v75.2c0 9.6 6.4 16 16 16s16-6.4 16-16v-52.8l32-51.2c4.8-9.6 0-20.8-11.2-25.6-9.6-4.8-20.8-1.6-25.6 9.6v1.6l-27.2 43.2z" fill="#2C4971" p-id="57193"></path></svg>