<?xml version="1.0" standalone="no"?><!DOCTYPE svg PUBLIC "-//W3C//DTD SVG 1.1//EN" "http://www.w3.org/Graphics/SVG/1.1/DTD/svg11.dtd"><svg t="1736012647224" class="icon" viewBox="0 0 1024 1024" version="1.1" xmlns="http://www.w3.org/2000/svg" p-id="25005" xmlns:xlink="http://www.w3.org/1999/xlink" width="64" height="64"><path d="M735.003951 261.457192v-37.801039h6.211439c1.153553 0 2.307106 0.443674 3.105719 1.242287 0.798614 0.798614 1.331023 1.952166 1.331023 3.105719v29.105026c0 1.153553-0.443674 2.307106-1.331023 3.10572s-1.952166 1.242288-3.105719 1.242287h-6.211439z m9.317158 89.17851c-0.798614 0.798614-1.952166 1.331023-3.105719 1.331022h-6.211439v-56.790294h6.211439c1.153553 0 2.307106 0.443674 3.105719 1.242288 0.798614 0.798614 1.331023 1.952166 1.331023 3.105719v48.005546c0 1.153553-0.532409 2.307106-1.331023 3.105719z m-463.728249 43.746274c-0.798614-0.798614-1.242288-1.952166-1.242288-3.10572v-78.707798c0-1.153553 0.443674-2.307106 1.242288-3.10572 0.798614-0.798614 1.952166-1.242288 3.105719-1.242287h6.211438v87.492547h-6.211438c-1.153553-0.088735-2.218371-0.532409-3.105719-1.331022z m454.411091 21.828769v-56.790294h6.211439c1.153553 0 2.307106 0.443674 3.105719 1.242287 0.798614 0.798614 1.331023 1.952166 1.331023 3.10572v48.005545c0 1.153553-0.443674 2.307106-1.331023 3.10572-0.798614 0.798614-1.952166 1.331023-3.105719 1.331022h-6.211439z" fill="#AAA0EB" p-id="25006"></path><path d="M662.086988 968.650759h-300.189948c-21.118891 0-40.995494-8.25234-55.902946-23.159792-14.907452-14.907452-23.159792-34.784055-23.159792-55.902946v-755.133449c0-21.118891 8.25234-40.995494 23.159792-55.902946 14.907452-14.907452 34.784055-23.159792 55.902946-23.159792h300.189948c21.118891 0 40.995494 8.25234 55.902946 23.159792 14.907452 14.907452 23.159792 34.784055 23.159792 55.902946v755.133449c0 21.118891-8.25234 40.995494-23.159792 55.902946-14.996187 14.907452-34.784055 23.159792-55.902946 23.159792z m-300.189948-895.689428c-16.415945 0-31.855806 6.388908-43.480069 18.013172-11.624263 11.624263-18.013172 27.064125-18.013172 43.480069v755.133449c0 16.415945 6.388908 31.855806 18.013172 43.480069 11.624263 11.624263 27.064125 18.013172 43.480069 18.013172h300.189948c16.415945 0 31.855806-6.388908 43.480069-18.013172 11.624263-11.624263 18.013172-27.064125 18.013172-43.480069v-755.133449c0-16.415945-6.388908-31.855806-18.013172-43.480069-11.624263-11.624263-27.064125-18.013172-43.480069-18.013172h-300.189948z" fill="#958DBB" p-id="25007"></path><path d="M662.086988 966.432388h-300.101213c-20.497747 0-39.841941-7.986135-54.394454-22.538648-14.463778-14.552513-22.538648-33.807972-22.538649-54.305719v-755.133449c0-20.497747 7.986135-39.841941 22.538649-54.394454 14.552513-14.463778 33.807972-22.449913 54.394454-22.449913h300.189948c20.497747 0 39.841941 7.986135 54.394454 22.538648s22.538648 33.807972 22.538648 54.394454v755.133449c0 20.497747-7.986135 39.841941-22.538648 54.394454-14.641248 14.375043-33.896707 22.361179-54.483189 22.361178z m-300.101213-895.689428c-17.037088 0-33.009359 6.655113-45.077297 18.634316-11.979203 12.067938-18.634315 28.040208-18.634315 45.077296v755.133449c0 17.037088 6.655113 33.009359 18.634315 45.077296s28.040208 18.634315 45.077297 18.634316h300.189948c17.037088 0 33.009359-6.655113 45.077296-18.634316 12.067938-12.067938 18.634315-28.040208 18.634315-45.077296v-755.133449c0-17.037088-6.655113-33.009359-18.634315-45.077296-12.067938-12.067938-28.040208-18.634315-45.077296-18.634316h-300.189948z" fill="#B8AFE9" p-id="25008"></path><path d="M361.985775 64.176582c-18.634315 0-36.470017 7.364991-49.691508 20.586482s-20.586482 31.057192-20.586482 49.691508v755.133449c0 18.634315 7.364991 36.470017 20.586482 49.691508 13.22149 13.22149 31.057192 20.586482 49.691508 20.586481h300.189948c18.634315 0 36.470017-7.364991 49.691508-20.586481 13.22149-13.22149 20.586482-31.057192 20.586481-49.691508v-755.133449c0-18.634315-7.364991-36.470017-20.586481-49.691508s-31.145927-20.586482-49.780243-20.586482h-300.101213z" fill="#B1AAE0" p-id="25009"></path><path d="M662.086988 961.995646h-300.101213c-19.344194 0-37.534835-7.542461-51.288735-21.207625-13.665165-13.665165-21.207626-31.855806-21.207626-51.2v-755.133449c0-19.344194 7.542461-37.534835 21.207626-51.288735 13.665165-13.665165 31.944541-21.207626 51.288735-21.207626h300.189948c19.344194 0 37.534835 7.542461 51.288735 21.207626 13.665165 13.665165 21.207626 31.855806 21.207625 51.288735v755.133449c0 19.344194-7.542461 37.534835-21.207625 51.288735-13.753899 13.57643-31.944541 21.118891-51.37747 21.11889z m-300.101213-895.600693c-18.190641 0-35.316464 7.098787-48.183016 19.965338-12.866551 12.777816-19.965338 29.90364-19.965338 48.094281v755.133449c0 18.190641 7.098787 35.316464 19.965338 48.183015s29.992374 19.965338 48.183016 19.965338h300.189948c18.190641 0 35.316464-7.098787 48.183015-19.965338s19.965338-29.992374 19.965338-48.183015v-755.133449c0-18.190641-7.098787-35.316464-19.965338-48.183016s-30.081109-19.876603-48.27175-19.876603h-300.101213z" fill="#8982B9" p-id="25010"></path><path d="M656.562357 66.418024v-8.784748h-8.784749v8.784748h8.784749z m-362.748007 115.355286h-8.784749v-13.044021h8.784749v13.044021z m445.182669 0h-8.784749v-13.044021h8.784749v13.044021z m-453.967418 684.32305h8.784749v-13.04402h-8.784749v13.04402z m453.967418 0h-8.784749v-13.04402h8.784749v13.04402z m-354.850607 91.396881v8.784749h-8.784748v-8.784749h8.784748z" fill="#A699D1" p-id="25011"></path><path d="M517.159931 492.788908c4.880416-7.808666 14.907452-10.381976 14.907452-10.381976s1.952166 10.115771-2.92825 17.924437c-4.880416 7.808666-14.818718 10.381976-14.818717 10.381976s-2.129636-10.115771 2.839515-17.924437z m-22.538649 18.811785c-6.388908 2.484575-12.156672 6.122704-16.948353 10.559446-9.405893 8.873484-15.262392 21.030156-15.262392 34.517851s5.856499 25.644367 15.262392 34.517851c4.791681 4.525477 10.559445 8.163605 16.948353 10.559445 3.460659 1.331023 7.010052-0.354939 10.82565-2.129636 3.016984-1.419757 6.033969-2.839515 9.139688-2.839515 3.105719 0 6.211438 1.419757 9.228423 2.839515 3.726863 1.774697 7.364991 3.460659 10.82565 2.129636 6.388908-2.484575 12.156672-6.122704 16.948354-10.559445 3.194454-3.016984 6.033969-6.388908 8.341074-10.115772-11.358059-5.679029-22.893588-18.190641-22.893587-31.500866 0-12.067938 5.767764-22.627383 13.487695-28.306413-4.614211-4.081802-9.938302-7.276256-15.883536-9.583362-3.460659-1.331023-7.010052 0.443674-10.736915 2.218371-3.016984 1.419757-6.033969 2.92825-9.228423 2.92825-3.105719 0-6.211438-1.508492-9.228423-2.92825-3.815598-1.863432-7.364991-3.638128-10.82565-2.307106z" fill="#EBECEE" p-id="25012"></path><path d="M435.682718 266.437879h-73.02877c-13.753899 0-26.620451-5.32409-36.381282-15.084922-9.672097-9.672097-15.084922-22.627383-15.084922-36.381283v-79.506412c0-13.753899 5.32409-26.620451 15.084922-36.381283 9.672097-9.672097 22.627383-15.084922 36.381282-15.084922h73.02877c13.753899 0 26.620451 5.32409 36.381282 15.084922 9.672097 9.672097 15.084922 22.627383 15.084922 36.381283v79.595147c-0.088735 28.306412-23.071057 51.37747-51.466204 51.37747z m-73.02877-167.442635c-9.760832 0-18.90052 3.815598-25.821837 10.648181-6.921317 6.921317-10.64818 16.061005-10.64818 25.821837v79.595147c0 9.760832 3.815598 18.90052 10.64818 25.821837 6.921317 6.921317 16.061005 10.64818 25.821837 10.64818h73.02877c20.142808 0 36.470017-16.32721 36.470017-36.470017v-79.595147c0-9.760832-3.815598-18.90052-10.64818-25.821837-6.921317-6.921317-16.061005-10.64818-25.821837-10.648181h-73.02877z" fill="#C3BAEF" p-id="25013"></path><path d="M435.682718 263.332159h-73.02877c-12.866551 0-25.023224-5.057886-34.162912-14.108838-9.139688-9.139688-14.197574-21.29636-14.197573-34.162912v-79.595147c0-12.866551 5.057886-25.023224 14.197573-34.162912s21.29636-14.197574 34.162912-14.197574h73.02877c12.955286 0 25.023224 5.057886 34.162911 14.197574s14.108839 21.29636 14.108839 34.162912v79.595147c0.088735 26.620451-21.6513 48.27175-48.27175 48.27175z m-73.02877-167.353899c-10.559445 0-20.497747 4.081802-27.951473 11.535529-7.453726 7.453726-11.535529 17.392028-11.535529 27.951473v79.595147c0 10.559445 4.081802 20.497747 11.535529 27.951473 7.453726 7.453726 17.392028 11.535529 27.951473 11.535529h73.02877c21.828769 0 39.487002-17.746967 39.487001-39.487002v-79.595147c0-10.559445-4.081802-20.497747-11.535528-27.951473-7.453726-7.453726-17.392028-11.535529-27.951473-11.535529h-73.02877z" fill="#948BC2" p-id="25014"></path><path d="M479.606461 135.465262a43.92818 43.92818 0 0 0-43.923743-43.923744h-73.02877a43.92818 43.92818 0 0 0-43.923743 43.923744v79.595147a43.92818 43.92818 0 0 0 43.923743 43.923744h73.02877c24.22461 0 43.923744-19.699133 43.923743-43.923744v-79.595147z" fill="#CEC4F8" p-id="25015"></path><path d="M359.655598 107.03462c-16.415945 0-29.72617 13.310225-29.72617 29.72617s13.310225 29.72617 29.72617 29.72617 29.72617-13.310225 29.72617-29.72617-13.310225-29.72617-29.72617-29.72617z" fill="#131313" p-id="25016"></path><path d="M359.655598 171.367376c-19.07799 0-34.606586-15.528596-34.606586-34.606586s15.528596-34.606586 34.606586-34.606585 34.606586 15.528596 34.606586 34.606585-15.528596 34.606586-34.606586 34.606586z m0-59.541074c-13.753899 0-24.934489 11.180589-24.934489 24.934488 0 13.753899 11.180589 24.934489 24.934489 24.934489 13.753899 0 24.934489-11.180589 24.934489-24.934489 0-13.753899-11.180589-24.934489-24.934489-24.934488z" fill="#AEA3E4" p-id="25017"></path><path d="M359.655598 124.692853c-6.655113 0-12.067938 5.412825-12.067938 12.067937s5.412825 12.067938 12.067938 12.067938 12.067938-5.412825 12.067938-12.067938-5.412825-12.067938-12.067938-12.067937z" fill="#0D195B" p-id="25018"></path><path d="M359.655598 153.709144c-9.317158 0-16.948354-7.631196-16.948354-16.948354 0-9.317158 7.631196-16.948354 16.948354-16.948353 9.317158 0 16.948354 7.631196 16.948353 16.948353 0 9.317158-7.631196 16.948354-16.948353 16.948354z m0-24.22461c-3.993068 0-7.276256 3.283189-7.276257 7.276256 0 3.993068 3.283189 7.276256 7.276257 7.276257 3.993068 0 7.276256-3.283189 7.276256-7.276257 0-3.993068-3.283189-7.276256-7.276256-7.276256z" fill="#302C35" p-id="25019"></path><path d="M353.710364 137.11573c0-3.105719 2.307106-5.945234 3.194454-5.945234 0.443674 0 0.266205 0.709879-0.088735 1.774696-0.266205 1.064818-0.709879 2.57331-0.709878 4.081803 0 1.597227 0.443674 2.92825 0.798613 3.904333 0.266205 0.887348 0.443674 1.331023 0 1.331022-0.887348 0.088735-3.194454-2.040901-3.194454-5.14662z m8.784749 3.904332c0.354939-0.976083 0.798614-2.307106 0.798613-3.904332 0-1.508492-0.443674-3.016984-0.709879-4.081803-0.354939-1.064818-0.532409-1.774697-0.088734-1.774696 0.887348 0 3.194454 2.839515 3.194454 5.945233s-2.307106 5.235355-3.194454 5.235356c-0.443674-0.088735-0.266205-0.621144 0-1.419758z m-3.904333-4.259272c0-0.887348 0.532409-1.508492 1.064818-1.508492 0.621144 0 1.064818 0.709879 1.064818 1.508492 0 0.887348-0.532409 1.508492-1.064818 1.508492-0.621144 0.088735-1.064818-0.621144-1.064818-1.508492z" fill="#1A32B4" p-id="25020"></path><path d="M359.655598 184.004104c-16.415945 0-29.72617 13.310225-29.72617 29.72617s13.310225 29.72617 29.72617 29.72617 29.72617-13.310225 29.72617-29.72617-13.310225-29.72617-29.72617-29.72617z" fill="#131313" p-id="25021"></path><path d="M359.655598 248.33686c-19.07799 0-34.606586-15.528596-34.606586-34.606586s15.528596-34.606586 34.606586-34.606586 34.606586 15.528596 34.606586 34.606586-15.528596 34.606586-34.606586 34.606586z m0-59.45234c-13.665165 0-24.845754 11.180589-24.845754 24.845754 0 13.753899 11.180589 24.845754 24.845754 24.845754 13.753899 0 24.845754-11.180589 24.845754-24.845754s-11.091854-24.845754-24.845754-24.845754z" fill="#AEA3E4" p-id="25022"></path><path d="M359.655598 201.662336c-6.655113 0-12.067938 5.412825-12.067938 12.067938s5.412825 12.067938 12.067938 12.067937 12.067938-5.412825 12.067938-12.067937-5.412825-12.067938-12.067938-12.067938z" fill="#0D195B" p-id="25023"></path><path d="M359.655598 230.678627c-9.317158 0-16.948354-7.631196-16.948354-16.948353s7.631196-16.948354 16.948354-16.948354 16.948354 7.631196 16.948353 16.948354-7.542461 16.948354-16.948353 16.948353z m0-24.135875c-3.993068 0-7.187522 3.194454-7.187522 7.187522s3.194454 7.187522 7.187522 7.187521 7.187522-3.194454 7.187522-7.187521-3.194454-7.187522-7.187522-7.187522z" fill="#302C35" p-id="25024"></path><path d="M353.710364 214.085213c0-3.105719 2.307106-5.945234 3.194454-5.945234 0.443674 0 0.266205 0.709879-0.088735 1.774697-0.266205 1.064818-0.709879 2.57331-0.709878 4.081802 0 1.597227 0.443674 2.92825 0.798613 3.904333 0.266205 0.887348 0.443674 1.331023 0 1.331023-0.887348 0.088735-3.194454-2.040901-3.194454-5.146621z m8.784749 3.904333c0.354939-0.976083 0.798614-2.307106 0.798613-3.904333 0-1.508492-0.443674-3.016984-0.709879-4.081802-0.354939-1.064818-0.532409-1.774697-0.088734-1.774697 0.887348 0 3.194454 2.839515 3.194454 5.945234s-2.307106 5.235355-3.194454 5.235355c-0.443674-0.088735-0.266205-0.621144 0-1.419757z m-3.904333-4.259272c0-0.887348 0.532409-1.597227 1.064818-1.597227 0.621144 0 1.064818 0.709879 1.064818 1.597227s-0.532409 1.508492-1.064818 1.508492c-0.621144 0.088735-1.064818-0.621144-1.064818-1.508492z" fill="#1A32B4" p-id="25025"></path><path d="M479.606461 135.465262a43.92818 43.92818 0 0 0-43.923743-43.923744h-76.045754s6.033969 32.831889 37.002426 55.104333c30.968458 22.272444 82.967071 35.22773 82.967071 35.22773v-46.408319z" fill="#EBECEE" opacity=".2" p-id="25026"></path><path d="M433.664887 160.586981c-7.719931 0-14.020104 6.300173-14.020104 14.020104s6.300173 14.020104 14.020104 14.020104 14.020104-6.300173 14.020104-14.020104-6.300173-14.020104-14.020104-14.020104z" fill="#F0E0CE" p-id="25027"></path><path d="M433.664887 189.869477c-8.429809 0-15.351127-6.832582-15.351126-15.351127s6.832582-15.351127 15.351126-15.351126 15.262392 7.010052 15.262392 15.439861-6.832582 15.262392-15.262392 15.262392z m0-27.951474c-7.010052 0-12.689081 5.679029-12.689081 12.689082s5.679029 12.689081 12.689081 12.689081 12.689081-5.767764 12.689082-12.689081-5.767764-12.689081-12.689082-12.689082z" fill="#BFB5E6" p-id="25028"></path><path d="M433.664887 125.625456c-3.904333 0-7.010052 3.105719-7.010052 7.010052s3.105719 7.010052 7.010052 7.010052 7.010052-3.105719 7.010052-7.010052-3.194454-7.010052-7.010052-7.010052z" fill="#9B99A3" p-id="25029"></path><path d="M433.664887 140.266704c-4.259272 0-7.631196-3.460659-7.631195-7.631196 0-4.259272 3.460659-7.631196 7.631195-7.631196 4.259272 0 7.631196 3.460659 7.631196 7.631196 0 4.170537-3.460659 7.631196-7.631196 7.631196z m0-14.020104c-3.460659 0-6.300173 2.839515-6.300173 6.300173 0 3.460659 2.839515 6.300173 6.300173 6.300173 3.460659 0 6.300173-2.839515 6.300174-6.300173 0-3.460659-2.839515-6.300173-6.300174-6.300173z" fill="#BFB5E6" p-id="25030"></path><path d="M437.125546 173.276062h-7.098787v-7.453726h7.098787v7.453726z m0.17747 10.027037h-7.098787v-7.453726h7.098787v7.453726z" fill="#F0EECE" p-id="25031"></path></svg>