<?xml version="1.0" standalone="no"?><!DOCTYPE svg PUBLIC "-//W3C//DTD SVG 1.1//EN" "http://www.w3.org/Graphics/SVG/1.1/DTD/svg11.dtd"><svg t="1736018594984" class="icon" viewBox="0 0 1024 1024" version="1.1" xmlns="http://www.w3.org/2000/svg" p-id="90493" xmlns:xlink="http://www.w3.org/1999/xlink" width="64" height="64"><path d="M512 768a256 256 0 1 1 0-512 256 256 0 0 1 0 512z m0-85.333333a170.666667 170.666667 0 1 0 0-341.333334 170.666667 170.666667 0 0 0 0 341.333334z m42.666667-170.666667a42.666667 42.666667 0 1 1 0-85.333333 42.666667 42.666667 0 0 1 0 85.333333zM170.666667 298.666667a42.666667 42.666667 0 1 1-85.333334 0V256a170.666667 170.666667 0 0 1 170.666667-170.666667h42.666667a42.666667 42.666667 0 1 1 0 85.333334H256a85.333333 85.333333 0 0 0-85.333333 85.333333v42.666667z m554.666666-128a42.666667 42.666667 0 0 1 0-85.333334h42.666667a170.666667 170.666667 0 0 1 170.666667 170.666667v42.666667a42.666667 42.666667 0 0 1-85.333334 0V256a85.333333 85.333333 0 0 0-85.333333-85.333333h-42.666667z m128 554.666666a42.666667 42.666667 0 0 1 85.333334 0v42.666667a170.666667 170.666667 0 0 1-170.666667 170.666667h-42.666667a42.666667 42.666667 0 0 1 0-85.333334h42.666667a85.333333 85.333333 0 0 0 85.333333-85.333333v-42.666667zM298.666667 853.333333a42.666667 42.666667 0 0 1 0 85.333334H256a170.666667 170.666667 0 0 1-170.666667-170.666667v-42.666667a42.666667 42.666667 0 0 1 85.333334 0v42.666667a85.333333 85.333333 0 0 0 85.333333 85.333333h42.666667z" fill="#1296db" p-id="90494"></path></svg>