<?xml version="1.0" standalone="no"?><!DOCTYPE svg PUBLIC "-//W3C//DTD SVG 1.1//EN" "http://www.w3.org/Graphics/SVG/1.1/DTD/svg11.dtd"><svg t="1736019585012" class="icon" viewBox="0 0 1024 1024" version="1.1" xmlns="http://www.w3.org/2000/svg" p-id="98399" xmlns:xlink="http://www.w3.org/1999/xlink" width="64" height="64"><path d="M501.361778 192c-45.283556 0-81.464889 13.994667-167.879111 48.526222l-119.808 47.957334c-43.121778 17.237333-72.988444 29.240889-92.387556 39.367111a175.331556 175.331556 0 0 0-5.12 2.844444l5.12 2.787556c19.342222 10.126222 49.265778 22.129778 92.387556 39.367111l119.808 47.957333c86.414222 34.531556 122.595556 48.526222 167.822222 48.526222 45.283556 0 81.464889-13.994667 167.879111-48.526222l119.808-47.957333c43.121778-17.237333 72.988444-29.240889 92.387556-39.367111l5.12-2.844445a175.331556 175.331556 0 0 0-5.12-2.787555c-19.342222-10.126222-49.265778-22.129778-92.387556-39.367111l-119.808-47.957334c-86.414222-34.531556-122.595556-48.526222-167.822222-48.526222zM314.595556 179.143111c80.042667-32.028444 127.829333-51.143111 186.709333-51.143111 58.823111 0 106.609778 19.114667 186.652444 51.2 1.649778 0.568889 3.299556 1.251556 4.949334 1.934222l121.742222 48.696889c40.732444 16.270222 73.728 29.468444 96.369778 41.358222 11.491556 6.030222 22.584889 12.8 31.118222 21.048889a53.191111 53.191111 0 0 1 17.806222 38.456889 53.191111 53.191111 0 0 1-17.806222 38.4c-8.533333 8.248889-19.626667 15.018667-31.118222 21.048889-22.641778 11.889778-55.637333 25.031111-96.369778 41.358222l-121.742222 48.696889-4.949334 1.991111c-80.042667 32.028444-127.829333 51.143111-186.652444 51.143111-58.88 0-106.666667-19.114667-186.709333-51.2-1.649778-0.568889-3.299556-1.251556-4.949334-1.934222l-121.742222-48.696889c-40.732444-16.270222-73.728-29.468444-96.369778-41.358222a136.931556 136.931556 0 0 1-31.118222-21.048889 53.191111 53.191111 0 0 1-17.806222-38.456889c0-17.180444 8.988444-29.980444 17.806222-38.4 8.533333-8.248889 19.626667-15.018667 31.118222-21.048889 22.641778-11.889778 55.637333-25.031111 96.369778-41.358222l121.742222-48.696889 4.949334-1.991111zM95.971556 477.468444l0.113777 0.113778a77.767111 77.767111 0 0 0 6.087111 4.892445c4.664889 3.584 11.889778 8.874667 21.674667 15.246222a521.671111 521.671111 0 0 0 89.827556 45.795555l119.808 47.957334c86.414222 34.531556 122.595556 48.526222 167.822222 48.526222 45.283556 0 81.464889-13.994667 167.879111-48.526222l119.808-47.957334a521.671111 521.671111 0 0 0 89.827556-45.795555 323.982222 323.982222 0 0 0 27.761777-20.138667l0.056889-0.056889 0.056889-0.056889a31.971556 31.971556 0 0 1 42.666667 47.672889l-21.333334-23.779555 21.333334 23.779555v0.056889l-0.113778 0.056889-0.227556 0.170667-0.568888 0.568889a141.653333 141.653333 0 0 1-8.817778 7.111111c-5.973333 4.608-14.620444 10.922667-25.998222 18.318222-22.755556 14.791111-56.32 33.735111-100.864 51.541333l-119.808 47.900445-4.949334 1.991111c-80.042667 32.028444-127.829333 51.143111-186.652444 51.143111-58.88 0-106.666667-19.114667-186.709334-51.2-1.649778-0.568889-3.299556-1.251556-4.949333-1.934222L189.895111 603.022222a585.500444 585.500444 0 0 1-100.864-51.541333 387.640889 387.640889 0 0 1-34.816-25.486222l-0.568889-0.512-0.227555-0.170667H53.361778V525.084444l21.333333-23.779555-21.390222 23.779555a32.028444 32.028444 0 0 1 42.666667-47.672888z m810.666666 170.666667h0.056889a31.971556 31.971556 0 0 1 42.666667 47.672889l-21.333334-23.779556 21.333334 23.779556v0.056889l-0.113778 0.056889-0.227556 0.170666-0.568888 0.568889a141.653333 141.653333 0 0 1-8.817778 7.111111c-5.973333 4.608-14.620444 10.922667-25.998222 18.318223-22.755556 14.791111-56.32 33.735111-100.864 51.541333l-119.808 47.900444-4.949334 1.991112c-80.042667 32.028444-127.829333 51.143111-186.652444 51.143111-58.88 0-106.666667-19.114667-186.709334-51.2-1.649778-0.568889-3.299556-1.251556-4.949333-1.934223L189.895111 773.688889a585.500444 585.500444 0 0 1-100.864-51.541333 387.640889 387.640889 0 0 1-34.816-25.486223l-0.568889-0.512-0.227555-0.170666H53.361778v-0.113778l21.333333-23.779556-21.390222 23.779556a32.028444 32.028444 0 0 1 42.666667-47.672889l0.113777 0.113778a77.824 77.824 0 0 0 6.087111 4.892444c4.664889 3.584 11.889778 8.874667 21.674667 15.246222a521.671111 521.671111 0 0 0 89.827556 45.795556l119.808 47.957333c86.414222 34.531556 122.595556 48.526222 167.822222 48.526223 45.283556 0 81.464889-13.994667 167.879111-48.526223l119.808-47.957333a521.671111 521.671111 0 0 0 89.827556-45.795556 323.982222 323.982222 0 0 0 27.761777-20.138666l0.056889-0.056889z m-804.977778-164.977778a3131.619556 3131.619556 0 0 0-5.688888-5.688889" fill="#2c2c2c" p-id="98400"></path></svg>