<?xml version="1.0" standalone="no"?><!DOCTYPE svg PUBLIC "-//W3C//DTD SVG 1.1//EN" "http://www.w3.org/Graphics/SVG/1.1/DTD/svg11.dtd"><svg t="1747459876659" class="icon" viewBox="0 0 1024 1024" version="1.1" xmlns="http://www.w3.org/2000/svg" p-id="12562" xmlns:xlink="http://www.w3.org/1999/xlink" width="64" height="64"><path d="M718.464 64c-130.304 1.92-243.2 104.96-243.2 240 0 129.92 103.68 240 243.2 240 144 0 236.8-132.864 236.8-231.04 0-7.68-8.32-7.04-14.72-3.456l-152.576 86.4-104.96-57.6V218.432l158.912-91.52c6.208-3.136 12.736-7.872 9.28-14.272-24.32-42.24-90.24-48.64-132.736-48.64z m-266.88 345.6l-384 398.272c-5.12 5.056-4.48 12.8 0 17.6l138.56 130.56c5.12 5.12 13.44 5.12 17.92 0L606.08 563.2c5.76-6.4 3.84-17.28-4.48-20.48-64-26.24-105.6-72.32-128-128.96-5.76-14.4-16-10.56-22.144-4.16z" p-id="12563" fill="#ffffff"></path></svg>