<?xml version="1.0" standalone="no"?><!DOCTYPE svg PUBLIC "-//W3C//DTD SVG 1.1//EN" "http://www.w3.org/Graphics/SVG/1.1/DTD/svg11.dtd"><svg t="1739873880012" class="icon" viewBox="0 0 1024 1024" version="1.1" xmlns="http://www.w3.org/2000/svg" p-id="4468" xmlns:xlink="http://www.w3.org/1999/xlink" width="64" height="64"><path d="M419.392 789.333333A128.042667 128.042667 0 0 1 177.92 789.333333H149.184A106.624 106.624 0 0 1 42.666667 682.496V256.170667C42.666667 197.205333 90.282667 149.333333 149.184 149.333333h448.298667A106.624 106.624 0 0 1 704 256.170667V277.333333h128a42.666667 42.666667 0 0 1 32.768 15.36l106.666667 128A42.666667 42.666667 0 0 1 981.333333 448v234.602667A106.666667 106.666667 0 0 1 874.688 789.333333h-7.296a128.042667 128.042667 0 0 1-241.450667 0H419.413333z m0-85.333333H618.666667V256.170667A21.290667 21.290667 0 0 0 597.482667 234.666667H149.184A21.333333 21.333333 0 0 0 128 256.170667v426.325333A21.290667 21.290667 0 0 0 149.184 704H177.92a128.042667 128.042667 0 0 1 241.450667 0z m448 0H874.666667a21.333333 21.333333 0 0 0 21.333333-21.397333V463.445333L812.010667 362.666667H704v263.274666A128.042667 128.042667 0 0 1 867.392 704zM746.666667 789.333333a42.666667 42.666667 0 1 0 0-85.333333 42.666667 42.666667 0 0 0 0 85.333333z m-448 0a42.666667 42.666667 0 1 0 0-85.333333 42.666667 42.666667 0 0 0 0 85.333333z" fill="" p-id="4469"></path></svg>