<?xml version="1.0" standalone="no"?><!DOCTYPE svg PUBLIC "-//W3C//DTD SVG 1.1//EN" "http://www.w3.org/Graphics/SVG/1.1/DTD/svg11.dtd"><svg t="1747791674798" class="icon" viewBox="0 0 1024 1024" version="1.1" xmlns="http://www.w3.org/2000/svg" p-id="2276" xmlns:xlink="http://www.w3.org/1999/xlink" width="64" height="64"><path d="M652.29 245.02l135.765 135.765a64 64 0 0 1 0 90.51L471.271 788.078 244.997 561.804 561.781 245.02a64 64 0 0 1 90.51 0z m-22.627 67.883a32 32 0 0 0-45.254 0L358.134 539.177a32 32 0 0 0 45.255 45.255l226.274-226.274a32 32 0 0 0 0-45.255z m158.392-203.647L923.82 245.02q45.255 45.255 0 90.51t-90.51 0L697.546 199.766q-45.255-45.255 0-90.51 45.254-45.255 90.51 0zM177.115 855.96l22.627-248.9 226.275 226.273z" fill="#ffffff" p-id="2277"></path></svg>