<?xml version="1.0" standalone="no"?><!DOCTYPE svg PUBLIC "-//W3C//DTD SVG 1.1//EN" "http://www.w3.org/Graphics/SVG/1.1/DTD/svg11.dtd"><svg t="1736013612597" class="icon" viewBox="0 0 1024 1024" version="1.1" xmlns="http://www.w3.org/2000/svg" p-id="54241" xmlns:xlink="http://www.w3.org/1999/xlink" width="64" height="64"><path d="M1002.24 883.52h-39.936v-62.528a21.12 21.12 0 0 0-20.736-20.8h-83.2a21.12 21.12 0 0 0-20.672 20.8v62.528h-43.2a148.16 148.16 0 0 0-145.472-126.72h-33.6V615.68a107.52 107.52 0 0 0-32-86.592l-110.272-110.72 131.2-131.584c6.336-6.4 11.2-12.8 15.936-20.8h129.472a21.12 21.12 0 0 0 20.736-20.8v-22.592h49.6v20.864c0 8 3.2 14.4 11.2 17.664l71.936 41.728c3.264 1.6 6.4 3.2 11.264 3.2a29.44 29.44 0 0 0 11.2-3.2l71.936-41.728a23.04 23.04 0 0 0 8-28.8c-6.4-9.728-19.2-12.8-28.672-8.064l-65.856 38.464-51.2-30.464v-59.392l51.2-30.464 62.336 35.328c9.6 6.4 22.4 1.664 28.736-8 6.4-9.6 1.6-22.4-8-28.8l-71.808-41.92a23.168 23.168 0 0 0-20.736 0l-73.664 43.392a22.016 22.016 0 0 0-11.264 17.664v20.8h-49.536V160a21.12 21.12 0 0 0-20.736-20.8H569.088a87.936 87.936 0 0 0-91.2 20.8L326.08 312.384c-55.936 9.6-99.2 59.392-99.2 118.656 0 40.128 19.264 75.52 49.6 97.92 3.2 4.736 8 11.264 12.8 16l115.072 115.584v97.92h-25.6c-73.6 0-134.208 54.528-145.472 126.72H190.08v-62.592a21.12 21.12 0 0 0-20.736-20.8H81.536a21.12 21.12 0 0 0-20.736 20.8v62.592H20.864a21.12 21.12 0 0 0-20.736 20.8c0 11.264 9.6 20.8 20.736 20.8h981.44a21.12 21.12 0 0 0 20.736-20.8c0-12.8-9.6-22.4-20.736-22.4zM345.344 490.496c-32 0-57.6-25.728-57.6-57.792 0-32.128 25.6-57.792 57.6-57.792s57.6 25.664 57.6 57.792c0 32.064-25.6 57.792-57.6 57.792z" fill="#2D8CF0" p-id="54242"></path></svg>