<?xml version="1.0" standalone="no"?><!DOCTYPE svg PUBLIC "-//W3C//DTD SVG 1.1//EN" "http://www.w3.org/Graphics/SVG/1.1/DTD/svg11.dtd"><svg t="1736014128623" class="icon" viewBox="0 0 1137 1024" version="1.1" xmlns="http://www.w3.org/2000/svg" p-id="62161" xmlns:xlink="http://www.w3.org/1999/xlink" width="71.0625" height="64"><path d="M504.376889 354.702222c34.588444 0 63.829333 29.240889 63.829333 63.829334v89.201777a55.011556 55.011556 0 0 1 21.276445-3.982222c22.641778 0 42.552889 11.946667 54.613333 29.240889a63.146667 63.146667 0 0 1 31.857778-7.964444c29.297778 0 54.613333 19.911111 61.269333 46.535111a64.284444 64.284444 0 0 1 23.893333-3.982223c35.953778 0 63.886222 29.297778 63.886223 63.886223v63.829333c0 54.613333-10.638222 99.84-21.276445 142.392889-10.638222 43.918222-21.276444 83.854222-21.276444 134.371555 0 11.946667-9.329778 22.641778-21.333334 22.641778H504.376889a21.048889 21.048889 0 0 1-21.333333-21.333333c0-33.223111-15.928889-51.825778-39.879112-81.123556-13.312-15.928889-27.989333-34.645333-42.609777-57.173333-39.936-65.251556-75.832889-139.776-83.854223-169.016889-7.964444-29.240889-2.616889-46.592 5.347556-57.230222 9.329778-13.312 25.258667-19.911111 43.918222-19.911111 25.258667 0 51.882667 21.219556 74.524445 49.208889v-219.591111c0-35.84 29.240889-63.829333 63.886222-63.829334z m1.308444 37.262222a21.048889 21.048889 0 0 0-21.333333 21.276445v324.608a21.048889 21.048889 0 0 1-21.219556 21.333333 21.048889 21.048889 0 0 1-21.333333-21.333333v-17.237333c-18.602667-49.265778-61.212444-91.818667-74.524444-91.818667-5.290667 0-7.964444 1.308444-9.329778 5.290667-1.308444 2.730667-2.616889 9.329778 0 18.659555 6.712889 22.584889 39.936 91.818667 81.180444 159.630222 13.312 21.333333 26.624 37.262222 39.936 53.248 21.276444 26.624 39.879111 50.574222 46.535111 86.471111h215.608889c2.673778-46.535111 11.946667-85.162667 21.219556-123.733333 10.695111-42.552889 20.024889-83.797333 20.024889-133.063111V627.484444a21.048889 21.048889 0 0 0-21.333334-21.333333 20.992 20.992 0 0 0-21.219555 21.333333v25.258667a21.048889 21.048889 0 0 1-21.333333 21.276445 21.048889 21.048889 0 0 1-21.333334-21.276445v-67.811555a21.048889 21.048889 0 0 0-21.276444-21.333334 21.048889 21.048889 0 0 0-21.276445 21.333334v46.535111c0 11.946667-9.272889 21.276444-21.276444 21.276444a21.048889 21.048889 0 0 1-21.276445-21.276444V563.598222a21.048889 21.048889 0 0 0-21.276444-21.333333 20.992 20.992 0 0 0-21.276444 21.333333v46.535111a21.048889 21.048889 0 0 1-21.333334 21.333334 21.048889 21.048889 0 0 1-21.276444-21.333334V413.240889a21.048889 21.048889 0 0 0-21.276445-21.276445zM1066.496 0C1105.92 0 1137.777778 31.857778 1137.777778 71.224889v355.328c0 39.310222-31.857778 71.224889-71.281778 71.224889h-297.187556V426.666667h297.187556l0.170667-355.441778-0.170667-0.113778H71.281778L71.111111 426.552889h265.102222V497.777778H71.338667C31.857778 497.777778 0 465.92 0 426.552889V71.224889C0 31.914667 31.857778 0 71.281778 0z" fill="#2573EF" p-id="62162"></path></svg>