<?xml version="1.0" standalone="no"?><!DOCTYPE svg PUBLIC "-//W3C//DTD SVG 1.1//EN" "http://www.w3.org/Graphics/SVG/1.1/DTD/svg11.dtd"><svg t="1743504961228" class="icon" viewBox="0 0 1112 1024" version="1.1" xmlns="http://www.w3.org/2000/svg" p-id="4322" xmlns:xlink="http://www.w3.org/1999/xlink" width="69.5" height="64"><path d="M90.473896 941.751004c2.056225 22.618474 20.562249 39.068273 43.180722 39.068273h655.935743c24.674699 0 43.180723-18.506024 43.180723-43.180723V82.248996c0-24.674699-18.506024-43.180723-43.180723-43.180723H133.654618c-22.618474 0-41.124498 16.449799-43.180722 39.068273h20.562249c10.281124 0 16.449799 8.2249 16.449799 16.449799s-6.168675 18.506024-16.449799 18.506024h-20.562249v57.574298h20.562249c10.281124 0 16.449799 8.2249 16.449799 16.449799s-6.168675 18.506024-16.449799 18.506024h-20.562249v57.574297h20.562249c10.281124 0 16.449799 8.2249 16.449799 16.449799 0 10.281124-8.2249 16.449799-16.449799 16.4498h-20.562249v57.574297h20.562249c10.281124 0 16.449799 8.2249 16.449799 16.449799 0 10.281124-8.2249 16.449799-16.449799 16.449799h-20.562249v57.574297h20.562249c10.281124 0 16.449799 8.2249 16.449799 16.4498 0 10.281124-8.2249 16.449799-16.449799 16.449799h-20.562249V534.618474h20.562249c10.281124 0 16.449799 8.2249 16.449799 16.449799 0 10.281124-8.2249 16.449799-16.449799 16.449799h-20.562249v57.574297h20.562249c10.281124 0 16.449799 8.2249 16.449799 16.4498 0 10.281124-8.2249 16.449799-16.449799 16.449799h-20.562249v57.574297h20.562249c10.281124 0 16.449799 8.2249 16.449799 16.449799s-8.2249 16.449799-16.449799 16.449799h-20.562249v57.574298h20.562249c10.281124 0 16.449799 8.2249 16.449799 16.449799 0 10.281124-8.2249 16.449799-16.449799 16.449799h-20.562249v57.574297h20.562249c10.281124 0 16.449799 8.2249 16.449799 16.449799s-8.2249 16.449799-16.449799 16.4498l-20.562249 12.337349z m699.116465 71.967872H133.654618c-41.124498 0-76.080321-32.899598-78.136546-74.024097H16.449799c-10.281124 0-16.449799-8.2249-16.449799-16.449799s8.2249-16.449799 16.449799-16.449799h39.068273v-57.574297H16.449799c-10.281124 0-16.449799-8.2249-16.449799-16.4498s8.2249-16.449799 16.449799-16.449799h39.068273v-57.574297H16.449799c-10.281124 0-16.449799-8.2249-16.449799-16.449799 0-10.281124 8.2249-16.449799 16.449799-16.449799h39.068273v-57.574298H16.449799c-10.281124 0-16.449799-8.2249-16.449799-16.449799 0-10.281124 8.2249-16.449799 16.449799-16.449799h39.068273v-57.574297H16.449799c-10.281124 0-16.449799-8.2249-16.449799-16.449799 0-10.281124 8.2249-16.449799 16.449799-16.4498h39.068273v-57.574297H16.449799c-10.281124 0-16.449799-8.2249-16.449799-16.449799 0-10.281124 8.2249-16.449799 16.449799-16.449799h39.068273v-57.574297H16.449799c-10.281124 0-16.449799-8.2249-16.449799-16.4498 0-10.281124 8.2249-16.449799 16.449799-16.449799h39.068273v-57.574297H16.449799c-10.281124 0-16.449799-8.2249-16.449799-16.449799s8.2249-16.449799 16.449799-16.449799h39.068273V205.62249H16.449799c-10.281124 0-16.449799-8.2249-16.449799-16.449799 0-10.281124 8.2249-16.449799 16.449799-16.449799h39.068273V113.092369H16.449799c-10.281124 0-16.449799-8.2249-16.449799-16.449799s8.2249-16.449799 16.449799-16.449799h39.068273C57.574297 39.068273 92.53012 6.168675 133.654618 6.168675h655.935743c43.180723 0 78.136546 34.955823 78.136547 78.136546v853.333333c0 41.124498-34.955823 76.080321-78.136547 76.080322z" fill="#327BFF" p-id="4323"></path><path d="M738.184739 779.309237H392.738956c-8.2249 0-16.449799-8.2249-16.449799-16.449799 0-10.281124 6.168675-16.449799 16.449799-16.449799h345.445783c8.2249 0 16.449799 8.2249 16.449799 16.449799s-6.168675 16.449799-16.449799 16.449799zM738.184739 606.586345H392.738956c-8.2249 0-16.449799-8.2249-16.449799-16.449799 0-10.281124 6.168675-16.449799 16.449799-16.449799h345.445783c8.2249 0 16.449799 8.2249 16.449799 16.449799s-6.168675 16.449799-16.449799 16.449799zM738.184739 409.188755H392.738956c-8.2249 0-16.449799-8.2249-16.449799-16.449799 0-10.281124 6.168675-16.449799 16.449799-16.449799h345.445783c8.2249 0 16.449799 8.2249 16.449799 16.449799s-6.168675 16.449799-16.449799 16.449799zM738.184739 226.184739H392.738956c-8.2249 0-16.449799-8.2249-16.449799-16.449799s6.168675-16.449799 16.449799-16.449799h345.445783c8.2249 0 16.449799 8.2249 16.449799 16.449799s-6.168675 16.449799-16.449799 16.449799zM1056.899598 452.369478c-2.056225-4.11245-12.337349-8.2249-24.674698-8.2249s-22.618474 4.11245-24.674699 8.2249l-49.349398 98.698795v458.538153c0 6.168675 10.281124 10.281124 24.674699 10.281124h98.698795c14.393574 0 24.674699-4.11245 24.674699-10.281124V553.124498v-2.056225L1056.899598 452.369478z m18.506024 536.674699h-86.361445V559.293173l41.124498-84.305221h2.056225l41.124498 84.305221v429.751004z" fill="#327BFF" p-id="4324"></path><path d="M318.714859 355.726908c-8.2249-8.2249-20.562249-8.2249-28.787148 0l-41.124498 41.124498-20.562249-20.562249c-8.2249-8.2249-20.562249-8.2249-28.787149 0-8.2249 8.2249-8.2249 20.562249 0 28.787148l34.955824 34.955824c4.11245 4.11245 8.2249 6.168675 14.393574 6.168674 4.11245 0 10.281124-2.056225 14.393574-6.168674l55.518072-55.518073c8.2249-8.2249 8.2249-22.618474 0-28.787148zM318.714859 158.329317c-8.2249-8.2249-20.562249-8.2249-28.787148 0l-41.124498 41.124498-20.562249-20.562249c-8.2249-8.2249-20.562249-8.2249-28.787149 0-8.2249 8.2249-8.2249 20.562249 0 28.787149l34.955824 34.955823c4.11245 4.11245 8.2249 6.168675 14.393574 6.168675 4.11245 0 10.281124-2.056225 14.393574-6.168675L318.714859 185.060241c8.2249-6.168675 8.2249-18.506024 0-26.730924zM318.714859 528.449799c-8.2249-8.2249-20.562249-8.2249-28.787148 0l-41.124498 41.124498-20.562249-20.562249c-8.2249-8.2249-20.562249-8.2249-28.787149 0-8.2249 8.2249-8.2249 20.562249 0 28.787149l34.955824 34.955823c4.11245 4.11245 8.2249 6.168675 14.393574 6.168675 4.11245 0 10.281124-2.056225 14.393574-6.168675l55.518072-55.518072c8.2249-10.281124 8.2249-22.618474 0-28.787149zM318.714859 723.791165c-8.2249-8.2249-20.562249-8.2249-28.787148 0l-41.124498 41.124498-20.562249-20.562249c-8.2249-8.2249-20.562249-8.2249-28.787149 0-8.2249 8.2249-8.2249 20.562249 0 28.787148l34.955824 34.955824c4.11245 4.11245 8.2249 6.168675 14.393574 6.168674 4.11245 0 10.281124-2.056225 14.393574-6.168674l55.518072-55.518073c8.2249-8.2249 8.2249-20.562249 0-28.787148z" fill="#327BFF" p-id="4325"></path></svg>