<?xml version="1.0" standalone="no"?><!DOCTYPE svg PUBLIC "-//W3C//DTD SVG 1.1//EN" "http://www.w3.org/Graphics/SVG/1.1/DTD/svg11.dtd"><svg t="1736013460617" class="icon" viewBox="0 0 1024 1024" version="1.1" xmlns="http://www.w3.org/2000/svg" p-id="47224" xmlns:xlink="http://www.w3.org/1999/xlink" width="64" height="64"><path d="M699.733333 682.666667a17.066667 17.066667 0 0 0-17.066666 17.066666V785.066667H102.4V170.666667h580.266667v85.333333a17.066667 17.066667 0 0 0 34.133333 0v-102.4C716.8 68.9152 647.8848 0 563.2 0h-341.333333A153.770667 153.770667 0 0 0 68.266667 153.6v716.8C68.266667 955.0848 137.181867 1024 221.866667 1024h341.333333c84.6848 0 153.6-68.9152 153.6-153.6v-170.666667a17.066667 17.066667 0 0 0-17.066667-17.066666zM576.989867 86.084267h0.341333a17.066667 17.066667 0 0 1 0 34.133333c-9.386667 0-17.237333-7.645867-17.237333-17.066667s7.4752-17.066667 16.896-17.066666zM324.266667 68.266667h136.533333a17.066667 17.066667 0 0 1 0 34.133333h-136.533333a17.066667 17.066667 0 0 1 0-34.133333z m68.266666 870.4a34.133333 34.133333 0 1 1 0-68.266667 34.133333 34.133333 0 0 1 0 68.266667zM946.926933 309.316267a16.9984 16.9984 0 0 0-17.3056 0.477866L819.2 378.811733V324.266667a17.169067 17.169067 0 0 0-17.066667-17.066667h-0.136533c-29.0816 0.170667-297.7792 0-297.7792 0C456.465067 307.2 443.733333 414.5152 443.733333 477.866667s12.731733 170.666667 60.484267 170.666666H802.133333a17.066667 17.066667 0 0 0 17.066667-16.827733c0.1024-7.953067 0.1024-33.553067 0.068267-54.749867l110.353066 68.983467A16.9984 16.9984 0 0 0 955.733333 631.466667v-307.2a17.134933 17.134933 0 0 0-8.8064-14.9504z" fill="#1296db" p-id="47225"></path></svg>