<?xml version="1.0" standalone="no"?><!DOCTYPE svg PUBLIC "-//W3C//DTD SVG 1.1//EN" "http://www.w3.org/Graphics/SVG/1.1/DTD/svg11.dtd"><svg t="1736013895211" class="icon" viewBox="0 0 1024 1024" version="1.1" xmlns="http://www.w3.org/2000/svg" p-id="59088" xmlns:xlink="http://www.w3.org/1999/xlink" width="64" height="64"><path d="M256 981.333333c-25.6 0-42.666667-17.066667-42.666667-42.666666v-170.666667c0-25.6 17.066667-42.666667 42.666667-42.666667s42.666667 17.066667 42.666667 42.666667v170.666667c0 25.6-17.066667 42.666667-42.666667 42.666666zM768 981.333333c-25.6 0-42.666667-17.066667-42.666667-42.666666v-170.666667c0-25.6 17.066667-42.666667 42.666667-42.666667s42.666667 17.066667 42.666667 42.666667v170.666667c0 25.6-17.066667 42.666667-42.666667 42.666666z" fill="#8DC1FF" p-id="59089"></path><path d="M917.333333 768h-810.666666c-34.133333 0-64-29.866667-64-64v-597.333333C42.666667 72.533333 72.533333 42.666667 106.666667 42.666667h806.4c38.4 0 68.266667 29.866667 68.266666 64v593.066666c0 38.4-29.866667 68.266667-64 68.266667z" fill="#3B78E7" p-id="59090"></path><path d="M512 366.933333l174.933333 17.066667-273.066666 298.666667 89.6-217.6-170.666667-21.333334L584.533333 128 512 366.933333z" fill="#FFFFFF" p-id="59091"></path></svg>