<?xml version="1.0" standalone="no"?><!DOCTYPE svg PUBLIC "-//W3C//DTD SVG 1.1//EN" "http://www.w3.org/Graphics/SVG/1.1/DTD/svg11.dtd"><svg t="1737377503939" class="icon" viewBox="0 0 1024 1024" version="1.1" xmlns="http://www.w3.org/2000/svg" p-id="4932" xmlns:xlink="http://www.w3.org/1999/xlink" width="64" height="64"><path d="M512 127.872a382.336 382.336 0 0 1 271.616 112.512A382.336 382.336 0 0 1 896.128 512a382.336 382.336 0 0 1-112.512 271.616A382.336 382.336 0 0 1 512 896.128a382.336 382.336 0 0 1-271.616-112.512A382.336 382.336 0 0 1 127.872 512a382.336 382.336 0 0 1 112.512-271.616A382.336 382.336 0 0 1 512 127.872m0-64a448.064 448.064 0 1 0 0 896.256A448.064 448.064 0 1 0 512 63.872z" fill="#ffffff" p-id="4933"></path><path d="M480 736h64v64h-64v-64z m-3.072-49.728a2794.24 2794.24 0 0 1-0.448-46.72c0-27.328 3.904-50.88 11.648-70.656 5.696-14.912 14.72-30.016 27.392-45.12 9.28-11.072 25.856-27.2 49.92-48.384s39.744-38.08 46.976-50.688a81.92 81.92 0 0 0 10.752-41.28c0-27.008-10.496-50.752-31.552-71.232a107.328 107.328 0 0 0-77.504-30.72c-29.632 0-54.336 9.344-74.112 27.84-19.84 18.496-32.832 47.36-39.04 86.784L329.6 387.584c6.4-52.672 25.472-93.056 57.28-121.088 31.808-27.968 73.728-41.984 125.888-41.984 55.36 0 99.456 14.976 132.352 45.12 32.896 30.08 49.408 66.496 49.408 109.184 0 24.704-5.824 47.36-17.408 68.288-11.648 20.928-34.24 46.208-67.904 75.968-22.592 20.16-37.44 34.816-44.416 44.416-6.912 9.536-12.16 20.416-15.36 32.832-3.328 12.288-5.312 58.368-5.824 86.208H476.928v-0.256z" fill="#ffffff" p-id="4934"></path></svg>