<?xml version="1.0" standalone="no"?><!DOCTYPE svg PUBLIC "-//W3C//DTD SVG 1.1//EN" "http://www.w3.org/Graphics/SVG/1.1/DTD/svg11.dtd"><svg t="1736015784407" class="icon" viewBox="0 0 1024 1024" version="1.1" xmlns="http://www.w3.org/2000/svg" p-id="80798" xmlns:xlink="http://www.w3.org/1999/xlink" width="64" height="64"><path d="M777 1013H247a80.09 80.09 0 0 1-80-80V99a80.09 80.09 0 0 1 80-80h530a80.09 80.09 0 0 1 80 80v834a80.09 80.09 0 0 1-80 80zM247 59a40 40 0 0 0-40 40v834a40 40 0 0 0 40 40h530a40 40 0 0 0 40-40V99a40 40 0 0 0-40-40z" fill="#0045FF" p-id="80799"></path><path d="M570.5 902.42h-120a20 20 0 0 1 0-40h120a20 20 0 0 1 0 40z" fill="#0045FF" opacity=".7" p-id="80800"></path><path d="M396 268.86m60 0l230 0q60 0 60 60l0 422.14q0 60-60 60l-230 0q-60 0-60-60l0-422.14q0-60 60-60Z" fill="#0045FF" opacity=".22" p-id="80801"></path><path d="M627 767.72H397a80.09 80.09 0 0 1-80-80V265.58a80.09 80.09 0 0 1 80-80h230a80.09 80.09 0 0 1 80 80v422.14a80.09 80.09 0 0 1-80 80zM397 225.58a40 40 0 0 0-40 40v422.14a40 40 0 0 0 40 40h230a40 40 0 0 0 40-40V265.58a40 40 0 0 0-40-40z" fill="#0045FF" opacity=".7" p-id="80802"></path></svg>