<?xml version="1.0" standalone="no"?><!DOCTYPE svg PUBLIC "-//W3C//DTD SVG 1.1//EN" "http://www.w3.org/Graphics/SVG/1.1/DTD/svg11.dtd"><svg t="1730134021153" class="icon" viewBox="0 0 1024 1024" version="1.1" xmlns="http://www.w3.org/2000/svg" p-id="1688" xmlns:xlink="http://www.w3.org/1999/xlink" width="64" height="64"><path d="M776 442.88l-24-24L593.52 625.6l44.24 106.96a44.88 44.88 0 0 1-9.76 48.96l-22.32 22.32a28.32 28.32 0 0 1-40 0L442.08 680a21.28 21.28 0 0 0-30 0L272 820.32a10.64 10.64 0 0 1-8 3.2h-48a10.88 10.88 0 0 1-10.88-10.88v-48a10.64 10.64 0 0 1 3.2-8l140.32-140.16a21.28 21.28 0 0 0 0-30L224.8 462.64a28.32 28.32 0 0 1 0-40l22.24-22.24A44.88 44.88 0 0 1 296 390.64l106.96 44.32 206.32-159.2-23.52-23.44a44.96 44.96 0 0 1 0-63.52 44.88 44.88 0 0 1 63.52 0l32 32L808 347.36l32 32a44.8 44.8 0 0 1 0 63.52 45.04 45.04 0 0 1-64 0z" fill="#ffffff" p-id="1689"></path></svg>