<?xml version="1.0" standalone="no"?><!DOCTYPE svg PUBLIC "-//W3C//DTD SVG 1.1//EN" "http://www.w3.org/Graphics/SVG/1.1/DTD/svg11.dtd"><svg t="1736015421747" class="icon" viewBox="0 0 1024 1024" version="1.1" xmlns="http://www.w3.org/2000/svg" p-id="78370" xmlns:xlink="http://www.w3.org/1999/xlink" width="64" height="64"><path d="M935.972 583.996c0-26.406-21.592-47.998-47.996-47.998H631.992c-26.406 0-47.998 21.592-47.998 47.998v175.988c0 26.406 21.592 47.998 47.998 47.998h255.984c26.404 0 47.996-21.592 47.996-47.998v-175.988zM535.998 855.978V520c0-8.796 7.202-16 15.998-16h447.972c8.796 0 16 7.204 16 16v271.982l-63.996 79.996H551.996c-8.796 0-15.998-7.202-15.998-16z" fill="#94C1FF" p-id="78371"></path><path d="M999.968 504h-15.998c8.794 0 15.998 7.204 15.998 16v291.98l16-19.998V520c0-8.796-7.202-16-16-16z" fill="#5C9EFF" p-id="78372"></path><path d="M551.996 855.978V520c0-8.796 7.204-16 16-16h-16c-8.796 0-15.998 7.204-15.998 16v335.978c0 8.796 7.202 16 15.998 16h16c-8.796 0-16-7.202-16-16zM887.976 535.998H631.992c-26.406 0-47.998 21.592-47.998 47.998v175.988c0 26.406 21.592 47.998 47.998 47.998h255.984c26.404 0 47.996-21.592 47.996-47.998v-175.988c0-26.406-21.592-47.998-47.996-47.998z" fill="#D7E9FF" p-id="78373"></path><path d="M599.994 759.984v-175.988c0-26.406 21.592-47.998 47.996-47.998h-15.998c-26.406 0-47.998 21.592-47.998 47.998v175.988c0 26.406 21.592 47.998 47.998 47.998h15.998c-26.404 0-47.996-21.592-47.996-47.998z" fill="#FFFFFF" p-id="78374"></path><path d="M919.974 583.996v175.988c0 26.406-21.592 47.998-47.998 47.998h16c26.404 0 47.996-21.592 47.996-47.998v-175.988c0-26.406-21.592-47.998-47.996-47.998h-16c26.406 0 47.998 21.592 47.998 47.998z" fill="#94C1FF" p-id="78375"></path><path d="M839.978 152.022H583.994c-26.404 0-47.996 21.6-47.996 47.998v175.988c0 26.398 21.592 47.998 47.996 47.998H839.978l47.998-47.998V200.02c0-26.396-21.594-47.998-47.998-47.998z" fill="#D7E9FF" p-id="78376"></path><path d="M839.978 152.022h-15.998c26.404 0 47.996 21.6 47.996 47.998v191.988l16-16V200.02c0-26.396-21.594-47.998-47.998-47.998z" fill="#94C1FF" p-id="78377"></path><path d="M551.996 376.008V200.02c0-26.398 21.594-47.998 47.998-47.998h-16c-26.404 0-47.996 21.6-47.996 47.998v175.988c0 26.398 21.592 47.998 47.996 47.998h16c-26.404 0-47.998-21.6-47.998-47.998z" fill="#FFFFFF" p-id="78378"></path><path d="M328.01 488.002v255.984c0 26.404-5.592 47.996-31.998 47.996H104.024c-26.404 0-47.996-21.592-47.996-47.996V488.002c0-26.398 21.592-47.998 47.996-47.998h175.99c26.404 0 47.996 21.602 47.996 47.998z" fill="#D7E9FF" p-id="78379"></path><path d="M72.026 743.986V488.002c0-26.398 21.594-47.998 47.998-47.998h-16c-26.404 0-47.996 21.6-47.996 47.998v255.984c0 26.404 21.592 47.996 47.996 47.996h16c-26.404 0-47.998-21.592-47.998-47.996z" fill="#FFFFFF" p-id="78380"></path><path d="M312.012 743.986V488.002c0-26.398-21.592-47.998-47.998-47.998h16c26.404 0 47.996 21.6 47.996 47.998v255.984c0 26.404-21.592 47.996-47.996 47.996h-16c26.406 0 47.998-21.592 47.998-47.996z" fill="#94C1FF" p-id="78381"></path><path d="M56.028 488.002v255.984c0 26.404 21.592 47.996 47.996 47.996h191.988c26.406 0 31.998-21.592 31.998-47.996V488.002c0-26.398-21.592-47.998-47.996-47.998H104.024c-26.404 0-47.996 21.602-47.996 47.998z m383.976-191.988v559.964c0 8.796-7.204 16-16 16H24.03c-8.796 0-16-7.204-16-16V168.022c0-8.796 7.204-16 16-16h351.978l63.996 63.996v79.996z" fill="#94C1FF" p-id="78382"></path><path d="M424.004 200.02V855.978c0 8.796-7.202 16-15.998 16h15.998c8.796 0 16-7.204 16-16V216.018l-16-15.998z" fill="#5C9EFF" p-id="78383"></path><path d="M24.03 855.978V168.022c0-8.796 7.204-16 15.998-16h-15.998c-8.796 0-16 7.204-16 16v687.956c0 8.796 7.204 16 16 16h15.998c-8.796 0-15.998-7.202-15.998-16z" fill="#D7E9FF" p-id="78384"></path><path d="M424.004 879.976H24.03c-4.422 0-8-3.578-8-7.998 0-4.422 3.578-8 8-8h399.974c4.422 0 8 3.578 8 8a7.994 7.994 0 0 1-8 7.998zM8.03 863.978a7.994 7.994 0 0 1-7.998-8V168.022c0-4.422 3.578-8 7.998-8 4.422 0 8 3.578 8 8v687.956c0 4.422-3.578 8-8 8zM440.004 863.978c-4.422 0-8-3.578-8-8v-639.96c0-4.42 3.578-8 8-8s8 3.578 8 8v639.96c0 4.422-3.578 8-8 8zM376.008 160.022H24.03c-4.422 0-8-3.578-8-8 0-4.42 3.578-8 8-8h351.978c4.422 0 8 3.578 8 8 0 4.422-3.578 8-8 8z" fill="#116FFF" p-id="78385"></path><path d="M440.004 224.018a7.976 7.976 0 0 1-5.656-2.344l-63.996-63.996a8 8 0 1 1 11.312-11.312l63.996 63.996a8 8 0 0 1-5.656 13.656zM424.004 879.976a7.994 7.994 0 0 1-7.998-7.998c0-4.422 3.578-8 7.998-8 4.406 0 8-3.594 8-8 0-4.42 3.578-7.998 8-7.998s8 3.578 8 7.998c0 13.234-10.766 23.998-24 23.998zM24.03 879.976c-13.234 0-23.998-10.764-23.998-23.998a7.994 7.994 0 0 1 7.998-7.998c4.422 0 8 3.578 8 7.998 0 4.406 3.594 8 8 8 4.422 0 8 3.578 8 8a7.994 7.994 0 0 1-8 7.998zM8.03 176.022a7.994 7.994 0 0 1-7.998-8c0-13.234 10.764-24 23.998-24 4.422 0 8 3.578 8 8 0 4.422-3.578 8-8 8-4.406 0-8 3.586-8 8 0 4.422-3.578 8-8 8zM296.012 799.982H104.024c-30.874 0-55.996-25.124-55.996-55.996V488.002c0-30.874 25.124-55.998 55.996-55.998h175.99c30.874 0 55.996 25.124 55.996 55.998v255.984c0 13.842 0 55.996-39.998 55.996zM104.024 448.004c-22.06 0-39.996 17.944-39.996 39.998v255.984c0 22.06 17.936 39.998 39.996 39.998h191.988c14.406 0 24-6.812 24-39.998V488.002c0-22.054-17.938-39.998-39.998-39.998H104.024z" fill="#116FFF" p-id="78386"></path><path d="M152.022 559.996c-4.422 0-8-3.578-8-7.998v-79.996c0-4.42 3.578-8 8-8s8 3.578 8 8v79.996a7.994 7.994 0 0 1-8 7.998zM232.016 559.996a7.994 7.994 0 0 1-7.998-7.998v-79.996c0-4.42 3.578-8 7.998-8 4.422 0 8 3.578 8 8v79.996a7.994 7.994 0 0 1-8 7.998zM152.022 767.984c-4.422 0-8-3.578-8-8v-63.996c0-4.422 3.578-8 8-8s8 3.578 8 8v63.996c0 4.422-3.578 8-8 8zM232.016 767.984a7.994 7.994 0 0 1-7.998-8v-63.996c0-4.422 3.578-8 7.998-8 4.422 0 8 3.578 8 8v63.996c0 4.422-3.578 8-8 8zM232.016 687.988H152.022c-13.234 0-23.998-10.764-23.998-23.998a7.994 7.994 0 0 1 7.998-7.998c4.422 0 8 3.578 8 7.998 0 4.406 3.594 8 8 8h79.994c4.406 0 8-3.594 8-8v-15.998c0-4.422 3.578-8 8-8s8 3.578 8 8v15.998c0 13.234-10.766 23.998-24 23.998z" fill="#116FFF" p-id="78387"></path><path d="M248.016 591.996c-4.422 0-8-3.578-8-8v-16c0-4.406-3.594-8-8-8H152.022c-4.422 0-8-3.578-8-7.998 0-4.422 3.578-8 8-8h79.994c13.234 0 24 10.766 24 23.998v16c0 4.422-3.578 8-8 8z" fill="#116FFF" p-id="78388"></path><path d="M280.014 591.996h-31.998c-4.422 0-8-3.578-8-8s3.578-8 8-8h31.998c4.422 0 8 3.578 8 8s-3.578 8-8 8zM280.014 655.992h-31.998c-4.422 0-8-3.578-8-8s3.578-8 8-8h31.998c4.422 0 8 3.578 8 8s-3.578 8-8 8z" fill="#116FFF" p-id="78389"></path><path d="M280.014 591.996a8 8 0 0 1-5.656-13.656l16-16a8 8 0 0 1 11.31 11.312l-15.998 16a7.976 7.976 0 0 1-5.656 2.344zM296.012 671.99a7.972 7.972 0 0 1-5.654-2.344l-16-15.998a8 8 0 1 1 11.312-11.312l15.998 16a7.996 7.996 0 0 1-5.656 13.654zM136.022 591.996H104.024c-4.42 0-7.998-3.578-7.998-8s3.578-8 7.998-8h31.998c4.422 0 8 3.578 8 8s-3.578 8-8 8zM136.022 655.992H104.024c-4.42 0-7.998-3.578-7.998-8s3.578-8 7.998-8h31.998c4.422 0 8 3.578 8 8s-3.578 8-8 8z" fill="#116FFF" p-id="78390"></path><path d="M104.024 591.996a7.972 7.972 0 0 1-5.654-2.344l-16-16a8 8 0 1 1 11.312-11.312l15.998 16a8 8 0 0 1-5.656 13.656zM88.026 671.99a7.996 7.996 0 0 1-5.656-13.654l16-16a8 8 0 0 1 11.31 11.312l-15.998 15.998a7.976 7.976 0 0 1-5.656 2.344zM136.022 671.99a7.994 7.994 0 0 1-7.998-8v-15.998c0-4.422 3.578-8 7.998-8 4.422 0 8 3.578 8 8v15.998c0 4.422-3.578 8-8 8zM887.976 815.98H631.992c-30.874 0-55.996-25.124-55.996-55.996v-175.988c0-30.874 25.124-55.996 55.996-55.996h255.984c30.874 0 55.996 25.124 55.996 55.996v175.988c0 30.874-25.122 55.996-55.996 55.996zM631.992 543.998c-22.062 0-39.998 17.936-39.998 39.998v175.988c0 22.062 17.936 39.998 39.998 39.998h255.984c22.06 0 39.996-17.936 39.996-39.998v-175.988c0-22.062-17.936-39.998-39.996-39.998H631.992z" fill="#116FFF" p-id="78391"></path><path d="M903.974 639.992H823.98c-4.422 0-8-3.578-8-8s3.578-8 8-8h79.994c4.422 0 8 3.578 8 8s-3.578 8-8 8zM903.974 719.988H823.98c-4.422 0-8-3.578-8-8s3.578-8 8-8h79.994c4.422 0 8 3.578 8 8s-3.578 8-8 8zM679.988 639.992h-63.996c-4.422 0-8-3.578-8-8s3.578-8 8-8h63.996c4.422 0 8 3.578 8 8s-3.578 8-8 8zM679.988 719.988h-63.996c-4.422 0-8-3.578-8-8s3.578-8 8-8h63.996c4.422 0 8 3.578 8 8s-3.578 8-8 8z" fill="#116FFF" p-id="78392"></path><path d="M727.986 735.986h-16c-13.232 0-23.998-10.766-23.998-23.998v-79.996c0-13.232 10.766-23.998 23.998-23.998 4.422 0 8 3.578 8 8a7.994 7.994 0 0 1-8 7.998 8.016 8.016 0 0 0-7.998 8v79.996c0 4.406 3.594 8 7.998 8h16a7.994 7.994 0 0 1 7.998 7.998c0 4.422-3.578 8-7.998 8zM807.98 735.986h-15.998c-4.422 0-8-3.578-8-8a7.994 7.994 0 0 1 8-7.998h15.998c4.406 0 8-3.594 8-8v-79.996c0-4.422 3.578-8 8-8s8 3.578 8 8v79.996c0 13.232-10.766 23.998-24 23.998z" fill="#116FFF" p-id="78393"></path><path d="M791.982 767.984c-4.422 0-8-3.578-8-8v-31.998a7.994 7.994 0 0 1 8-7.998 7.994 7.994 0 0 1 7.998 7.998v31.998c0 4.422-3.578 8-7.998 8zM727.986 767.984c-4.422 0-8-3.578-8-8v-31.998a7.994 7.994 0 0 1 8-7.998 7.994 7.994 0 0 1 7.998 7.998v31.998c0 4.422-3.578 8-7.998 8z" fill="#116FFF" p-id="78394"></path><path d="M807.98 783.984a7.976 7.976 0 0 1-5.656-2.344l-15.998-16a8 8 0 0 1 11.31-11.312l16 16a8 8 0 0 1-5.656 13.656zM711.986 783.984a8 8 0 0 1-5.654-13.656l15.998-16a8 8 0 0 1 11.31 11.312l-15.998 16a7.964 7.964 0 0 1-5.656 2.344zM791.982 623.992c-4.422 0-8-3.578-8-7.998v-31.998c0-4.422 3.578-8 8-8a7.994 7.994 0 0 1 7.998 8v31.998a7.994 7.994 0 0 1-7.998 7.998zM727.986 623.992c-4.422 0-8-3.578-8-7.998v-31.998c0-4.422 3.578-8 8-8a7.994 7.994 0 0 1 7.998 8v31.998a7.994 7.994 0 0 1-7.998 7.998z" fill="#116FFF" p-id="78395"></path><path d="M791.982 591.996a8 8 0 0 1-5.656-13.656l15.998-16a8 8 0 1 1 11.312 11.312l-16 16a7.968 7.968 0 0 1-5.654 2.344zM727.986 591.996a7.976 7.976 0 0 1-5.656-2.344l-15.998-16a8 8 0 0 1 11.31-11.312l15.998 16a8 8 0 0 1-5.654 13.656zM727.986 623.992h-16a7.994 7.994 0 0 1-7.998-7.998c0-4.422 3.578-8 7.998-8h16a7.994 7.994 0 0 1 7.998 8 7.994 7.994 0 0 1-7.998 7.998zM839.978 432.006H583.994c-30.874 0-55.996-25.124-55.996-55.998V200.02c0-30.874 25.124-55.998 55.996-55.998h255.984c30.874 0 55.998 25.124 55.998 55.998v175.988a7.996 7.996 0 0 1-2.344 5.656l-47.998 47.998a7.992 7.992 0 0 1-5.656 2.344zM583.994 160.022c-22.06 0-39.998 17.944-39.998 39.998v175.988c0 22.054 17.938 39.998 39.998 39.998h252.672l43.31-43.31V200.02c0-22.054-17.938-39.998-39.998-39.998H583.994z" fill="#116FFF" p-id="78396"></path><path d="M855.978 256.016h-79.996a7.994 7.994 0 0 1-7.998-8c0-4.42 3.578-8 7.998-8h79.996a7.994 7.994 0 0 1 7.998 8c0 4.422-3.578 8-7.998 8zM855.978 336.012h-79.996a7.994 7.994 0 0 1-7.998-8c0-4.422 3.578-8 7.998-8h79.996a7.994 7.994 0 0 1 7.998 8c0 4.422-3.578 8-7.998 8zM631.992 256.016h-63.996c-4.422 0-8-3.578-8-8 0-4.42 3.578-8 8-8h63.996c4.422 0 8 3.578 8 8 0 4.422-3.578 8-8 8zM631.992 336.012h-63.996c-4.422 0-8-3.578-8-8 0-4.422 3.578-8 8-8h63.996c4.422 0 8 3.578 8 8 0 4.422-3.578 8-8 8zM679.988 352.01h-15.998c-13.234 0-23.998-10.766-23.998-23.998v-79.996c0-13.232 10.764-23.998 23.998-23.998a7.994 7.994 0 0 1 7.998 8c0 4.42-3.578 8-7.998 8-4.406 0-8 3.586-8 8v79.996c0 4.414 3.594 8 8 8h15.998c4.422 0 8 3.578 8 8a7.994 7.994 0 0 1-8 7.996z" fill="#116FFF" p-id="78397"></path><path d="M759.984 352.01h-16c-4.422 0-8-3.578-8-8 0-4.42 3.578-8 8-8h16c4.406 0 8-3.586 8-8v-79.996c0-4.42 3.578-8 7.998-8 4.422 0 8 3.578 8 8v79.996c0 13.236-10.766 24-23.998 24z" fill="#116FFF" p-id="78398"></path><path d="M743.984 384.008c-4.422 0-8-3.578-8-8v-31.998c0-4.42 3.578-8 8-8s8 3.578 8 8v31.998c0 4.422-3.578 8-8 8zM679.988 384.008c-4.422 0-8-3.578-8-8v-31.998c0-4.42 3.578-8 8-8s8 3.578 8 8v31.998c0 4.422-3.578 8-8 8z" fill="#116FFF" p-id="78399"></path><path d="M759.984 400.008a7.976 7.976 0 0 1-5.656-2.344l-16-16a8 8 0 1 1 11.312-11.312l16 16a8 8 0 0 1-5.656 13.656zM663.99 400.008a8 8 0 0 1-5.656-13.656l15.998-16a8 8 0 1 1 11.312 11.312l-16 16a7.968 7.968 0 0 1-5.654 2.344zM743.984 240.018c-4.422 0-8-3.578-8-8V200.02c0-4.422 3.578-8 8-8s8 3.578 8 8v31.998c0 4.422-3.578 8-8 8zM679.988 240.018c-4.422 0-8-3.578-8-8V200.02c0-4.422 3.578-8 8-8s8 3.578 8 8v31.998c0 4.422-3.578 8-8 8z" fill="#116FFF" p-id="78400"></path><path d="M743.984 208.02a8 8 0 0 1-5.656-13.656l16-16a8 8 0 1 1 11.312 11.312l-16 16a7.974 7.974 0 0 1-5.656 2.344zM679.988 208.02a7.976 7.976 0 0 1-5.656-2.344l-15.998-16a8 8 0 0 1 11.31-11.312l16 16a8 8 0 0 1-5.656 13.656zM679.988 240.018h-15.998c-4.422 0-8-3.578-8-8 0-4.422 3.578-8 8-8h15.998c4.422 0 8 3.578 8 8 0 4.422-3.578 8-8 8zM72.026 381.29a7.994 7.994 0 0 1-7.998-8v-157.272c0-4.42 3.578-8 7.998-8 4.422 0 8 3.578 8 8v157.272c0 4.422-3.578 8-8 8zM120.024 381.29c-4.422 0-8-3.578-8-8v-157.272c0-4.42 3.578-8 8-8s8 3.578 8 8v157.272c0 4.422-3.578 8-8 8zM168.02 381.29a7.994 7.994 0 0 1-7.998-8v-77.276c0-4.422 3.578-8 7.998-8 4.422 0 8 3.578 8 8v77.276c0 4.422-3.578 8-8 8zM999.968 512H551.996c-4.422 0-8-3.578-8-8 0-4.42 3.578-8 8-8h447.972c4.422 0 8 3.578 8 8 0 4.422-3.578 8-8 8zM535.998 863.978c-4.422 0-8-3.578-8-8V520c0-4.422 3.578-8 8-8a7.994 7.994 0 0 1 7.998 8v335.978c0 4.422-3.578 8-7.998 8zM951.972 879.976H551.996c-4.422 0-8-3.578-8-7.998 0-4.422 3.578-8 8-8h399.976c4.422 0 8 3.578 8 8a7.994 7.994 0 0 1-8 7.998zM1015.968 799.982c-4.422 0-8-3.578-8-8V520c0-4.422 3.578-8 8-8s8 3.578 8 8v271.982c0 4.422-3.578 8-8 8z" fill="#116FFF" p-id="78401"></path><path d="M951.972 879.976a7.928 7.928 0 0 1-5-1.75 8.01 8.01 0 0 1-1.25-11.248l63.996-79.994a8.044 8.044 0 0 1 11.25-1.25 8.01 8.01 0 0 1 1.25 11.248l-63.996 79.994a7.994 7.994 0 0 1-6.25 3zM535.998 528c-4.422 0-8-3.578-8-8 0-13.234 10.766-23.998 23.998-23.998 4.422 0 8 3.578 8 8 0 4.422-3.578 8-8 8-4.406 0-8 3.584-8 8a7.994 7.994 0 0 1-7.998 7.998zM1015.968 528c-4.422 0-8-3.578-8-8 0-4.414-3.594-8-8-8-4.422 0-8-3.578-8-8 0-4.42 3.578-8 8-8 13.234 0 24 10.764 24 23.998a7.996 7.996 0 0 1-8 8.002zM551.996 879.976c-13.232 0-23.998-10.764-23.998-23.998a7.994 7.994 0 0 1 8-7.998 7.994 7.994 0 0 1 7.998 7.998c0 4.406 3.594 8 8 8 4.422 0 8 3.578 8 8a7.994 7.994 0 0 1-8 7.998zM440.004 272.016h-8c-4.422 0-8-3.578-8-8 0-4.422 3.578-8 8-8h8c4.422 0 8 3.578 8 8 0 4.422-3.578 8-8 8zM440.004 304.014h-8c-4.422 0-8-3.578-8-8 0-4.422 3.578-8 8-8h8c4.422 0 8 3.578 8 8 0 4.422-3.578 8-8 8z" fill="#116FFF" p-id="78402"></path></svg>