<?xml version="1.0" standalone="no"?><!DOCTYPE svg PUBLIC "-//W3C//DTD SVG 1.1//EN" "http://www.w3.org/Graphics/SVG/1.1/DTD/svg11.dtd"><svg t="1736014945935" class="icon" viewBox="0 0 1024 1024" version="1.1" xmlns="http://www.w3.org/2000/svg" p-id="67980" xmlns:xlink="http://www.w3.org/1999/xlink" width="64" height="64"><path d="M352.528 59.376l-100.896 174.752v686.384h201.776V234.128z" fill="#8CAEDC" p-id="67981"></path><path d="M251.632 234.128l48.624 40.432 35.248-32.816 49.84 42.544 68.064-50.16M335.504 241.744v568.88" fill="#8CAEDC" p-id="67982"></path><path d="M410.08 159.088h-115.12l57.568-99.712z" fill="#4A72B8" p-id="67983"></path><path d="M251.632 805.76h201.776v114.768H251.632z" fill="#5981C1" p-id="67984"></path><path d="M542.016 59.376h230.336v861.136H542.016z" fill="#8CAEDC" p-id="67985"></path><path d="M542.016 167.104h115.168M542.016 274.832h66.24M542.016 382.544h115.168M542.016 490.272h66.24M542.016 598h115.168M542.016 705.712h66.24M542.016 813.44h115.168" fill="#5981C1" p-id="67986"></path><path d="M104 433.328h816v113.232h-816z" fill="#4A72B8" p-id="67987"></path><path d="M175.904 546.56h672.176v418.048H175.904zM268.992 653.104v226.432" fill="#5981C1" p-id="67988"></path></svg>