<?xml version="1.0" standalone="no"?><!DOCTYPE svg PUBLIC "-//W3C//DTD SVG 1.1//EN" "http://www.w3.org/Graphics/SVG/1.1/DTD/svg11.dtd"><svg t="1761478230357" class="icon" viewBox="0 0 1184 1024" version="1.1" xmlns="http://www.w3.org/2000/svg" p-id="5214" xmlns:xlink="http://www.w3.org/1999/xlink" width="231.25" height="200"><path d="M402.272 512q-90.848 0-155.136-64.288t-64.288-155.136 64.288-155.136 155.136-64.288 155.136 64.288 64.288 155.136-64.288 155.136-155.136 64.288zM950.848 585.152l201.152 0q7.424 0 12.864 5.44t5.44 12.864l0 109.728q0 7.424-5.44 12.864t-12.864 5.44l-201.152 0 0 201.152q0 7.424-5.44 12.864t-12.864 5.44l-109.728 0q-7.424 0-12.864-5.44t-5.44-12.864l0-201.152-201.152 0q-7.424 0-12.864-5.44t-5.44-12.864l0-109.728q0-7.424 5.44-12.864t12.864-5.44l201.152 0 0-201.152q0-7.424 5.44-12.864t12.864-5.44l109.728 0q7.424 0 12.864 5.44t5.44 12.864l0 201.152zM530.272 713.152q0 29.728 21.728 51.424t51.424 21.728l146.272 0 0 136q-38.848 28.576-97.728 28.576l-499.424 0q-69.152 0-110.848-39.424t-41.728-108.576q0-30.272 2.016-59.136t8-62.272 15.136-62.016 24.576-55.712 35.424-46.272 48.864-30.56 63.712-11.424q10.848 0 22.272 9.728 45.152 34.848 88.288 52.288t94.016 17.44 94.016-17.44 88.288-52.288q11.424-9.728 22.272-9.728 75.424 0 124 54.848l-127.424 0q-29.728 0-51.424 21.728t-21.728 51.424l0 109.728z" p-id="5215" fill="#327BFF"></path></svg>