<?xml version="1.0" standalone="no"?><!DOCTYPE svg PUBLIC "-//W3C//DTD SVG 1.1//EN" "http://www.w3.org/Graphics/SVG/1.1/DTD/svg11.dtd"><svg t="1736020045577" class="icon" viewBox="0 0 1024 1024" version="1.1" xmlns="http://www.w3.org/2000/svg" p-id="104992" xmlns:xlink="http://www.w3.org/1999/xlink" width="64" height="64"><path d="M597.333 608.085v89.174A256 256 0 0 0 256 938.667l-85.333-0.043a341.333 341.333 0 0 1 426.666-330.581zM512 554.667c-141.44 0-256-114.56-256-256s114.56-256 256-256 256 114.56 256 256-114.56 256-256 256z m0-85.334c94.293 0 170.667-76.373 170.667-170.666S606.293 128 512 128s-170.667 76.373-170.667 170.667S417.707 469.333 512 469.333z m316.501 256h153.003v85.334H828.501l78.038 77.994-60.331 60.374L665.173 768l181.035-181.035 60.33 60.374-78.037 77.994z" p-id="104993" fill="#000000"></path></svg>