<?xml version="1.0" standalone="no"?><!DOCTYPE svg PUBLIC "-//W3C//DTD SVG 1.1//EN" "http://www.w3.org/Graphics/SVG/1.1/DTD/svg11.dtd"><svg t="1736334499505" class="icon" viewBox="0 0 1093 1024" version="1.1" xmlns="http://www.w3.org/2000/svg" p-id="13412" xmlns:xlink="http://www.w3.org/1999/xlink" width="68.3125" height="64"><path d="M992.618098 809.460936c-68.314344-53.167773-265.219768-141.50676-265.219768-141.50676L599.533091 903.008892l-18.957231-55.996415 34.968405-70.683998-70.022203-70.683998-70.043551 70.683998 35.03245 70.683998-22.58643 57.320005-124.289411-236.378306S166.793741 756.314511 98.479397 809.460936 0 1024 0 1024h1093.02951s-20.024642-151.967394-100.400738-214.549738zM552.065296 647.748074c160.46399-0.256179 267.42931-213.695809 267.42931-328.591996S819.035619 0 552.065296 0 284.64666 204.302586 284.64666 319.1881 391.622653 648.004253 552.065296 647.748074z m0 0" p-id="13413" fill="#2c2c2c"></path></svg>