<?xml version="1.0" standalone="no"?><!DOCTYPE svg PUBLIC "-//W3C//DTD SVG 1.1//EN" "http://www.w3.org/Graphics/SVG/1.1/DTD/svg11.dtd"><svg t="1747459716343" class="icon" viewBox="0 0 1024 1024" version="1.1" xmlns="http://www.w3.org/2000/svg" p-id="10597" xmlns:xlink="http://www.w3.org/1999/xlink" width="64" height="64"><path d="M760.1 715.8a44.2 44.2 0 1 0 44.2 44.2 44.2 44.2 0 0 0-44.2-44.2zM760 568c-106 0-192 86-192 192s86 192 192 192 192-86 192-192-86-192-192-192z m111.9 161.6l-27.6 16.6v24.5l25.1 19.5a4.2 4.2 0 0 1 1.2 4.8l-9.6 21.6a3.9 3.9 0 0 1-4.7 2.2l-30.4-8.2-18.4 18.3 8.3 30.4a4.1 4.1 0 0 1-2.3 4.7l-21.2 9.5a4 4 0 0 1-5-1.6l-16.6-27.6h-24.5l-16.6 27.6a4 4 0 0 1-5 1.6l-21.2-9.5a3.9 3.9 0 0 1-2.2-4.7l8.2-30.4-18.3-18.3-30.6 5.5a4 4 0 0 1-4.4-2.3l-9.6-21.5a4 4 0 0 1 1.6-5l27.6-16.6v-24.5l-27.6-16.6a4 4 0 0 1-1.6-5l9.5-21.2a3.9 3.9 0 0 1 4.7-2.2l30.4 8.2 18.3-18.3-5.5-30.6a4 4 0 0 1 2.3-4.4l21.5-9.6a4 4 0 0 1 5 1.6l16.6 27.6h24.5l16.6-27.6a4 4 0 0 1 5-1.6l21.2 9.5a3.9 3.9 0 0 1 2.2 4.7l-8.2 30.4 18.3 18.3 30.4-8.2a3.9 3.9 0 0 1 4.7 2.2l9.5 21.2a4 4 0 0 1-1.6 5zM512 564.5c133.7 0 242-108.3 242-242s-108.3-242-242-242-242 108.3-242 242 108.3 242 242 242z m4.8 299.3a264.4 264.4 0 0 1 0-205.6c2.3-5.4 4.8-10.8 7.4-16a4 4 0 0 0-3.7-5.8H512a311.4 311.4 0 0 1-122.2-24.7 319.8 319.8 0 0 1-57.9-32 4 4 0 0 0-4.2-0.3C208.7 644.8 128 771.2 128 916.5v25a4 4 0 0 0 4 4h429.9a4 4 0 0 0 3-6.7 261.9 261.9 0 0 1-48.1-75z" p-id="10598" fill="#ffffff"></path></svg>