<?xml version="1.0" standalone="no"?><!DOCTYPE svg PUBLIC "-//W3C//DTD SVG 1.1//EN" "http://www.w3.org/Graphics/SVG/1.1/DTD/svg11.dtd"><svg t="1736012926114" class="icon" viewBox="0 0 1024 1024" version="1.1" xmlns="http://www.w3.org/2000/svg" p-id="32886" xmlns:xlink="http://www.w3.org/1999/xlink" width="64" height="64"><path d="M256 182.857143h464.457143v146.285714h73.142857V182.857143c0-40.228571-32.914286-73.142857-73.142857-73.142857H256c-40.228571 0-73.142857 32.914286-73.142857 73.142857v724.114286c0 40.228571 32.914286 73.142857 73.142857 73.142857h201.142857v-73.142857H256V182.857143z" fill="#333333" p-id="32887"></path><path d="M384 263.314286c0-21.942857 14.628571-36.571429 36.571429-36.571429h131.657142c21.942857 0 36.571429 14.628571 36.571429 36.571429s-14.628571 36.571429-36.571429 36.571428h-131.657142c-18.285714 0-36.571429-14.628571-36.571429-36.571428z" fill="#333333" p-id="32888"></path><path d="M694.857143 987.428571h-10.971429c-58.514286-18.285714-245.028571-87.771429-245.028571-256v-266.971428l21.942857-10.971429c40.228571-18.285714 131.657143-47.542857 234.057143-47.542857 128 0 230.4 47.542857 234.057143 47.542857l21.942857 10.971429V731.428571c0 168.228571-186.514286 241.371429-245.028572 256H694.857143z m-182.857143-479.085714v219.428572c0 113.371429 135.314286 168.228571 182.857143 182.857142 47.542857-14.628571 182.857143-73.142857 182.857143-182.857142v-219.428572c-32.914286-10.971429-102.4-32.914286-182.857143-32.914286-76.8 0-146.285714 18.285714-182.857143 32.914286z" fill="#2C80FF" p-id="32889"></path></svg>